<mxfile host="app.diagrams.net" modified="2021-09-24T12:54:46.165Z" agent="5.0 (X11; Linux x86_64) AppleWebKit/537.36 (KHTML, like Gecko) Chrome/94.0.4606.54 Safari/537.36" etag="OFTIrUjFMoQp7lFAAeRg" version="15.3.1" type="github">
  <diagram name="Page-1" id="e56a1550-8fbb-45ad-956c-1786394a9013">
    <mxGraphModel dx="2346" dy="1039" grid="1" gridSize="10" guides="1" tooltips="1" connect="1" arrows="1" fold="1" page="1" pageScale="1" pageWidth="4681" pageHeight="3300" background="none" math="0" shadow="0">
      <root>
        <mxCell id="0" />
        <mxCell id="1" parent="0" />
        <mxCell id="IadoKZSt1bUUKNwr9SB5-1" value="&lt;b&gt;&lt;font style=&quot;font-size: 24px&quot;&gt;Dataflow Modu Backend&lt;/font&gt;&lt;/b&gt;" style="text;html=1;strokeColor=none;fillColor=none;align=center;verticalAlign=middle;whiteSpace=wrap;rounded=0;" vertex="1" parent="1">
          <mxGeometry x="330" y="150" width="300" height="60" as="geometry" />
        </mxCell>
        <mxCell id="IadoKZSt1bUUKNwr9SB5-111" value="&lt;font style=&quot;font-size: 18px&quot;&gt;&amp;nbsp;School&lt;span style=&quot;white-space: pre&quot;&gt;	&lt;/span&gt;: SMA K 1&lt;br&gt;&amp;nbsp;Grade&lt;span style=&quot;white-space: pre&quot;&gt;	&lt;/span&gt;: 11, 12, 13&lt;br&gt;&lt;/font&gt;&lt;div&gt;&lt;span&gt;&lt;font size=&quot;3&quot;&gt;&amp;nbsp;Class&lt;span style=&quot;white-space: pre&quot;&gt;	&lt;/span&gt;&amp;nbsp; : A, B, C&lt;/font&gt;&lt;/span&gt;&lt;/div&gt;" style="rounded=0;whiteSpace=wrap;html=1;align=left;" vertex="1" parent="1">
          <mxGeometry x="120" y="260" width="230" height="110" as="geometry" />
        </mxCell>
        <mxCell id="IadoKZSt1bUUKNwr9SB5-3" value="Class" style="swimlane;html=1;fontStyle=0;childLayout=stackLayout;horizontal=1;startSize=26;fillColor=#e0e0e0;horizontalStack=0;resizeParent=1;resizeLast=0;collapsible=1;marginBottom=0;swimlaneFillColor=#ffffff;align=center;rounded=0;shadow=0;comic=0;labelBackgroundColor=none;strokeWidth=1;fontFamily=Verdana;fontSize=14" vertex="1" parent="1">
          <mxGeometry x="790" y="410" width="230" height="160" as="geometry" />
        </mxCell>
        <mxCell id="IadoKZSt1bUUKNwr9SB5-4" value="uniqueId Generated" style="shape=partialRectangle;top=0;left=0;right=0;bottom=1;html=1;align=left;verticalAlign=middle;fillColor=none;spacingLeft=34;spacingRight=4;whiteSpace=wrap;overflow=hidden;rotatable=0;points=[[0,0.5],[1,0.5]];portConstraint=eastwest;dropTarget=0;fontStyle=5;" vertex="1" parent="IadoKZSt1bUUKNwr9SB5-3">
          <mxGeometry y="26" width="230" height="30" as="geometry" />
        </mxCell>
        <mxCell id="IadoKZSt1bUUKNwr9SB5-5" value="PK" style="shape=partialRectangle;top=0;left=0;bottom=0;html=1;fillColor=none;align=left;verticalAlign=middle;spacingLeft=4;spacingRight=4;whiteSpace=wrap;overflow=hidden;rotatable=0;points=[];portConstraint=eastwest;part=1;" vertex="1" connectable="0" parent="IadoKZSt1bUUKNwr9SB5-4">
          <mxGeometry width="30" height="30" as="geometry" />
        </mxCell>
        <mxCell id="IadoKZSt1bUUKNwr9SB5-6" value="grade_name : &amp;lt;string&amp;gt;&amp;nbsp; // 12" style="shape=partialRectangle;top=0;left=0;right=0;bottom=0;html=1;align=left;verticalAlign=top;fillColor=none;spacingLeft=34;spacingRight=4;whiteSpace=wrap;overflow=hidden;rotatable=0;points=[[0,0.5],[1,0.5]];portConstraint=eastwest;dropTarget=0;" vertex="1" parent="IadoKZSt1bUUKNwr9SB5-3">
          <mxGeometry y="56" width="230" height="26" as="geometry" />
        </mxCell>
        <mxCell id="IadoKZSt1bUUKNwr9SB5-7" value="" style="shape=partialRectangle;top=0;left=0;bottom=0;html=1;fillColor=none;align=left;verticalAlign=top;spacingLeft=4;spacingRight=4;whiteSpace=wrap;overflow=hidden;rotatable=0;points=[];portConstraint=eastwest;part=1;" vertex="1" connectable="0" parent="IadoKZSt1bUUKNwr9SB5-6">
          <mxGeometry width="30" height="26" as="geometry" />
        </mxCell>
        <mxCell id="IadoKZSt1bUUKNwr9SB5-8" value="school_id : &amp;lt;string&amp;gt; // SMA Jakarta" style="shape=partialRectangle;top=0;left=0;right=0;bottom=0;html=1;align=left;verticalAlign=top;fillColor=none;spacingLeft=34;spacingRight=4;whiteSpace=wrap;overflow=hidden;rotatable=0;points=[[0,0.5],[1,0.5]];portConstraint=eastwest;dropTarget=0;" vertex="1" parent="IadoKZSt1bUUKNwr9SB5-3">
          <mxGeometry y="82" width="230" height="26" as="geometry" />
        </mxCell>
        <mxCell id="IadoKZSt1bUUKNwr9SB5-9" value="" style="shape=partialRectangle;top=0;left=0;bottom=0;html=1;fillColor=none;align=left;verticalAlign=top;spacingLeft=4;spacingRight=4;whiteSpace=wrap;overflow=hidden;rotatable=0;points=[];portConstraint=eastwest;part=1;" vertex="1" connectable="0" parent="IadoKZSt1bUUKNwr9SB5-8">
          <mxGeometry width="30" height="26" as="geometry" />
        </mxCell>
        <mxCell id="IadoKZSt1bUUKNwr9SB5-10" value="academic_year : &amp;lt;string&amp;gt;" style="shape=partialRectangle;top=0;left=0;right=0;bottom=0;html=1;align=left;verticalAlign=top;fillColor=none;spacingLeft=34;spacingRight=4;whiteSpace=wrap;overflow=hidden;rotatable=0;points=[[0,0.5],[1,0.5]];portConstraint=eastwest;dropTarget=0;" vertex="1" parent="IadoKZSt1bUUKNwr9SB5-3">
          <mxGeometry y="108" width="230" height="26" as="geometry" />
        </mxCell>
        <mxCell id="IadoKZSt1bUUKNwr9SB5-11" value="" style="shape=partialRectangle;top=0;left=0;bottom=0;html=1;fillColor=none;align=left;verticalAlign=top;spacingLeft=4;spacingRight=4;whiteSpace=wrap;overflow=hidden;rotatable=0;points=[];portConstraint=eastwest;part=1;" vertex="1" connectable="0" parent="IadoKZSt1bUUKNwr9SB5-10">
          <mxGeometry width="30" height="26" as="geometry" />
        </mxCell>
        <mxCell id="IadoKZSt1bUUKNwr9SB5-12" value="class_name : &amp;lt;string&amp;gt;&amp;nbsp; // A,B,C" style="shape=partialRectangle;top=0;left=0;right=0;bottom=0;html=1;align=left;verticalAlign=top;fillColor=none;spacingLeft=34;spacingRight=4;whiteSpace=wrap;overflow=hidden;rotatable=0;points=[[0,0.5],[1,0.5]];portConstraint=eastwest;dropTarget=0;" vertex="1" parent="IadoKZSt1bUUKNwr9SB5-3">
          <mxGeometry y="134" width="230" height="26" as="geometry" />
        </mxCell>
        <mxCell id="IadoKZSt1bUUKNwr9SB5-13" value="" style="shape=partialRectangle;top=0;left=0;bottom=0;html=1;fillColor=none;align=left;verticalAlign=top;spacingLeft=4;spacingRight=4;whiteSpace=wrap;overflow=hidden;rotatable=0;points=[];portConstraint=eastwest;part=1;" vertex="1" connectable="0" parent="IadoKZSt1bUUKNwr9SB5-12">
          <mxGeometry width="30" height="26" as="geometry" />
        </mxCell>
        <mxCell id="IadoKZSt1bUUKNwr9SB5-15" value="Subject" style="swimlane;html=1;fontStyle=0;childLayout=stackLayout;horizontal=1;startSize=26;fillColor=#e0e0e0;horizontalStack=0;resizeParent=1;resizeLast=0;collapsible=1;marginBottom=0;swimlaneFillColor=#ffffff;align=center;rounded=0;shadow=0;comic=0;labelBackgroundColor=none;strokeWidth=1;fontFamily=Verdana;fontSize=14" vertex="1" parent="1">
          <mxGeometry x="1080" y="440" width="230" height="200" as="geometry" />
        </mxCell>
        <mxCell id="IadoKZSt1bUUKNwr9SB5-16" value="uniqueId Generated" style="shape=partialRectangle;top=0;left=0;right=0;bottom=1;html=1;align=left;verticalAlign=middle;fillColor=none;spacingLeft=34;spacingRight=4;whiteSpace=wrap;overflow=hidden;rotatable=0;points=[[0,0.5],[1,0.5]];portConstraint=eastwest;dropTarget=0;fontStyle=5;" vertex="1" parent="IadoKZSt1bUUKNwr9SB5-15">
          <mxGeometry y="26" width="230" height="30" as="geometry" />
        </mxCell>
        <mxCell id="IadoKZSt1bUUKNwr9SB5-17" value="PK" style="shape=partialRectangle;top=0;left=0;bottom=0;html=1;fillColor=none;align=left;verticalAlign=middle;spacingLeft=4;spacingRight=4;whiteSpace=wrap;overflow=hidden;rotatable=0;points=[];portConstraint=eastwest;part=1;" vertex="1" connectable="0" parent="IadoKZSt1bUUKNwr9SB5-16">
          <mxGeometry width="30" height="30" as="geometry" />
        </mxCell>
        <mxCell id="IadoKZSt1bUUKNwr9SB5-18" value="name : &amp;lt;string&amp;gt;&amp;nbsp;" style="shape=partialRectangle;top=0;left=0;right=0;bottom=0;html=1;align=left;verticalAlign=top;fillColor=none;spacingLeft=34;spacingRight=4;whiteSpace=wrap;overflow=hidden;rotatable=0;points=[[0,0.5],[1,0.5]];portConstraint=eastwest;dropTarget=0;" vertex="1" parent="IadoKZSt1bUUKNwr9SB5-15">
          <mxGeometry y="56" width="230" height="26" as="geometry" />
        </mxCell>
        <mxCell id="IadoKZSt1bUUKNwr9SB5-19" value="" style="shape=partialRectangle;top=0;left=0;bottom=0;html=1;fillColor=none;align=left;verticalAlign=top;spacingLeft=4;spacingRight=4;whiteSpace=wrap;overflow=hidden;rotatable=0;points=[];portConstraint=eastwest;part=1;" vertex="1" connectable="0" parent="IadoKZSt1bUUKNwr9SB5-18">
          <mxGeometry width="30" height="26" as="geometry" />
        </mxCell>
        <mxCell id="IadoKZSt1bUUKNwr9SB5-20" value="class_id&lt;br&gt;&lt;br&gt;icon_url&lt;br&gt;&lt;br&gt;description&lt;br&gt;&lt;br&gt;teacher_id" style="shape=partialRectangle;top=0;left=0;right=0;bottom=0;html=1;align=left;verticalAlign=top;fillColor=none;spacingLeft=34;spacingRight=4;whiteSpace=wrap;overflow=hidden;rotatable=0;points=[[0,0.5],[1,0.5]];portConstraint=eastwest;dropTarget=0;" vertex="1" parent="IadoKZSt1bUUKNwr9SB5-15">
          <mxGeometry y="82" width="230" height="118" as="geometry" />
        </mxCell>
        <mxCell id="IadoKZSt1bUUKNwr9SB5-21" value="" style="shape=partialRectangle;top=0;left=0;bottom=0;html=1;fillColor=none;align=left;verticalAlign=top;spacingLeft=4;spacingRight=4;whiteSpace=wrap;overflow=hidden;rotatable=0;points=[];portConstraint=eastwest;part=1;" vertex="1" connectable="0" parent="IadoKZSt1bUUKNwr9SB5-20">
          <mxGeometry width="30" height="118" as="geometry" />
        </mxCell>
        <mxCell id="IadoKZSt1bUUKNwr9SB5-26" value="Lesson" style="swimlane;html=1;fontStyle=0;childLayout=stackLayout;horizontal=1;startSize=26;fillColor=#e0e0e0;horizontalStack=0;resizeParent=1;resizeLast=0;collapsible=1;marginBottom=0;swimlaneFillColor=#ffffff;align=center;rounded=0;shadow=0;comic=0;labelBackgroundColor=none;strokeWidth=1;fontFamily=Verdana;fontSize=14" vertex="1" parent="1">
          <mxGeometry x="1370" y="477" width="230" height="160" as="geometry" />
        </mxCell>
        <mxCell id="IadoKZSt1bUUKNwr9SB5-27" value="uniqueId Generated" style="shape=partialRectangle;top=0;left=0;right=0;bottom=1;html=1;align=left;verticalAlign=middle;fillColor=none;spacingLeft=34;spacingRight=4;whiteSpace=wrap;overflow=hidden;rotatable=0;points=[[0,0.5],[1,0.5]];portConstraint=eastwest;dropTarget=0;fontStyle=5;" vertex="1" parent="IadoKZSt1bUUKNwr9SB5-26">
          <mxGeometry y="26" width="230" height="30" as="geometry" />
        </mxCell>
        <mxCell id="IadoKZSt1bUUKNwr9SB5-28" value="PK" style="shape=partialRectangle;top=0;left=0;bottom=0;html=1;fillColor=none;align=left;verticalAlign=middle;spacingLeft=4;spacingRight=4;whiteSpace=wrap;overflow=hidden;rotatable=0;points=[];portConstraint=eastwest;part=1;" vertex="1" connectable="0" parent="IadoKZSt1bUUKNwr9SB5-27">
          <mxGeometry width="30" height="30" as="geometry" />
        </mxCell>
        <mxCell id="IadoKZSt1bUUKNwr9SB5-29" value="name : &amp;lt;string&amp;gt;&amp;nbsp;" style="shape=partialRectangle;top=0;left=0;right=0;bottom=0;html=1;align=left;verticalAlign=top;fillColor=none;spacingLeft=34;spacingRight=4;whiteSpace=wrap;overflow=hidden;rotatable=0;points=[[0,0.5],[1,0.5]];portConstraint=eastwest;dropTarget=0;" vertex="1" parent="IadoKZSt1bUUKNwr9SB5-26">
          <mxGeometry y="56" width="230" height="26" as="geometry" />
        </mxCell>
        <mxCell id="IadoKZSt1bUUKNwr9SB5-30" value="" style="shape=partialRectangle;top=0;left=0;bottom=0;html=1;fillColor=none;align=left;verticalAlign=top;spacingLeft=4;spacingRight=4;whiteSpace=wrap;overflow=hidden;rotatable=0;points=[];portConstraint=eastwest;part=1;" vertex="1" connectable="0" parent="IadoKZSt1bUUKNwr9SB5-29">
          <mxGeometry width="30" height="26" as="geometry" />
        </mxCell>
        <mxCell id="IadoKZSt1bUUKNwr9SB5-31" value="subject_id" style="shape=partialRectangle;top=0;left=0;right=0;bottom=0;html=1;align=left;verticalAlign=top;fillColor=none;spacingLeft=34;spacingRight=4;whiteSpace=wrap;overflow=hidden;rotatable=0;points=[[0,0.5],[1,0.5]];portConstraint=eastwest;dropTarget=0;" vertex="1" parent="IadoKZSt1bUUKNwr9SB5-26">
          <mxGeometry y="82" width="230" height="78" as="geometry" />
        </mxCell>
        <mxCell id="IadoKZSt1bUUKNwr9SB5-32" value="" style="shape=partialRectangle;top=0;left=0;bottom=0;html=1;fillColor=none;align=left;verticalAlign=top;spacingLeft=4;spacingRight=4;whiteSpace=wrap;overflow=hidden;rotatable=0;points=[];portConstraint=eastwest;part=1;" vertex="1" connectable="0" parent="IadoKZSt1bUUKNwr9SB5-31">
          <mxGeometry width="30" height="78" as="geometry" />
        </mxCell>
        <mxCell id="IadoKZSt1bUUKNwr9SB5-37" value="Assignment" style="swimlane;html=1;fontStyle=0;childLayout=stackLayout;horizontal=1;startSize=26;fillColor=#e0e0e0;horizontalStack=0;resizeParent=1;resizeLast=0;collapsible=1;marginBottom=0;swimlaneFillColor=#ffffff;align=center;rounded=0;shadow=0;comic=0;labelBackgroundColor=none;strokeWidth=1;fontFamily=Verdana;fontSize=14" vertex="1" parent="1">
          <mxGeometry x="1660" y="490" width="230" height="260" as="geometry">
            <mxRectangle x="1010" y="1060" width="70" height="26" as="alternateBounds" />
          </mxGeometry>
        </mxCell>
        <mxCell id="IadoKZSt1bUUKNwr9SB5-38" value="uniqueId Generated" style="shape=partialRectangle;top=0;left=0;right=0;bottom=1;html=1;align=left;verticalAlign=middle;fillColor=none;spacingLeft=34;spacingRight=4;whiteSpace=wrap;overflow=hidden;rotatable=0;points=[[0,0.5],[1,0.5]];portConstraint=eastwest;dropTarget=0;fontStyle=5;" vertex="1" parent="IadoKZSt1bUUKNwr9SB5-37">
          <mxGeometry y="26" width="230" height="30" as="geometry" />
        </mxCell>
        <mxCell id="IadoKZSt1bUUKNwr9SB5-39" value="PK" style="shape=partialRectangle;top=0;left=0;bottom=0;html=1;fillColor=none;align=left;verticalAlign=middle;spacingLeft=4;spacingRight=4;whiteSpace=wrap;overflow=hidden;rotatable=0;points=[];portConstraint=eastwest;part=1;" vertex="1" connectable="0" parent="IadoKZSt1bUUKNwr9SB5-38">
          <mxGeometry width="30" height="30" as="geometry" />
        </mxCell>
        <mxCell id="IadoKZSt1bUUKNwr9SB5-40" value="name : &amp;lt;string&amp;gt;&amp;nbsp;" style="shape=partialRectangle;top=0;left=0;right=0;bottom=0;html=1;align=left;verticalAlign=top;fillColor=none;spacingLeft=34;spacingRight=4;whiteSpace=wrap;overflow=hidden;rotatable=0;points=[[0,0.5],[1,0.5]];portConstraint=eastwest;dropTarget=0;" vertex="1" parent="IadoKZSt1bUUKNwr9SB5-37">
          <mxGeometry y="56" width="230" height="26" as="geometry" />
        </mxCell>
        <mxCell id="IadoKZSt1bUUKNwr9SB5-41" value="" style="shape=partialRectangle;top=0;left=0;bottom=0;html=1;fillColor=none;align=left;verticalAlign=top;spacingLeft=4;spacingRight=4;whiteSpace=wrap;overflow=hidden;rotatable=0;points=[];portConstraint=eastwest;part=1;" vertex="1" connectable="0" parent="IadoKZSt1bUUKNwr9SB5-40">
          <mxGeometry width="30" height="26" as="geometry" />
        </mxCell>
        <mxCell id="IadoKZSt1bUUKNwr9SB5-42" value="lesson_id" style="shape=partialRectangle;top=0;left=0;right=0;bottom=0;html=1;align=left;verticalAlign=top;fillColor=none;spacingLeft=34;spacingRight=4;whiteSpace=wrap;overflow=hidden;rotatable=0;points=[[0,0.5],[1,0.5]];portConstraint=eastwest;dropTarget=0;" vertex="1" parent="IadoKZSt1bUUKNwr9SB5-37">
          <mxGeometry y="82" width="230" height="28" as="geometry" />
        </mxCell>
        <mxCell id="IadoKZSt1bUUKNwr9SB5-43" value="" style="shape=partialRectangle;top=0;left=0;bottom=0;html=1;fillColor=none;align=left;verticalAlign=top;spacingLeft=4;spacingRight=4;whiteSpace=wrap;overflow=hidden;rotatable=0;points=[];portConstraint=eastwest;part=1;" vertex="1" connectable="0" parent="IadoKZSt1bUUKNwr9SB5-42">
          <mxGeometry width="30" height="28" as="geometry" />
        </mxCell>
        <mxCell id="IadoKZSt1bUUKNwr9SB5-56" value="&lt;span style=&quot;font-family: &amp;#34;verdana&amp;#34; ; font-size: 14px ; text-align: center&quot;&gt;description&lt;br&gt;&lt;br&gt;start_date&lt;br&gt;&lt;br&gt;due_date&lt;br&gt;&lt;br&gt;&lt;/span&gt;&lt;span style=&quot;font-family: &amp;#34;verdana&amp;#34; ; font-size: 14px ; text-align: center&quot;&gt;class_student_id&lt;/span&gt;&lt;span style=&quot;font-family: &amp;#34;verdana&amp;#34; ; font-size: 14px ; text-align: center&quot;&gt;&lt;br&gt;&lt;/span&gt;" style="shape=partialRectangle;top=0;left=0;right=0;bottom=0;html=1;align=left;verticalAlign=top;fillColor=none;spacingLeft=34;spacingRight=4;whiteSpace=wrap;overflow=hidden;rotatable=0;points=[[0,0.5],[1,0.5]];portConstraint=eastwest;dropTarget=0;" vertex="1" parent="IadoKZSt1bUUKNwr9SB5-37">
          <mxGeometry y="110" width="230" height="150" as="geometry" />
        </mxCell>
        <mxCell id="IadoKZSt1bUUKNwr9SB5-57" value="" style="shape=partialRectangle;top=0;left=0;bottom=0;html=1;fillColor=none;align=left;verticalAlign=top;spacingLeft=4;spacingRight=4;whiteSpace=wrap;overflow=hidden;rotatable=0;points=[];portConstraint=eastwest;part=1;" vertex="1" connectable="0" parent="IadoKZSt1bUUKNwr9SB5-56">
          <mxGeometry width="30" height="150" as="geometry" />
        </mxCell>
        <mxCell id="IadoKZSt1bUUKNwr9SB5-58" value="Class Student" style="swimlane;html=1;fontStyle=0;childLayout=stackLayout;horizontal=1;startSize=26;fillColor=#e0e0e0;horizontalStack=0;resizeParent=1;resizeLast=0;collapsible=1;marginBottom=0;swimlaneFillColor=#ffffff;align=center;rounded=0;shadow=0;comic=0;labelBackgroundColor=none;strokeWidth=1;fontFamily=Verdana;fontSize=14" vertex="1" parent="1">
          <mxGeometry x="810" y="830" width="230" height="160" as="geometry" />
        </mxCell>
        <mxCell id="IadoKZSt1bUUKNwr9SB5-59" value="uniqueId Generated" style="shape=partialRectangle;top=0;left=0;right=0;bottom=1;html=1;align=left;verticalAlign=middle;fillColor=none;spacingLeft=34;spacingRight=4;whiteSpace=wrap;overflow=hidden;rotatable=0;points=[[0,0.5],[1,0.5]];portConstraint=eastwest;dropTarget=0;fontStyle=5;" vertex="1" parent="IadoKZSt1bUUKNwr9SB5-58">
          <mxGeometry y="26" width="230" height="30" as="geometry" />
        </mxCell>
        <mxCell id="IadoKZSt1bUUKNwr9SB5-60" value="PK" style="shape=partialRectangle;top=0;left=0;bottom=0;html=1;fillColor=none;align=left;verticalAlign=middle;spacingLeft=4;spacingRight=4;whiteSpace=wrap;overflow=hidden;rotatable=0;points=[];portConstraint=eastwest;part=1;" vertex="1" connectable="0" parent="IadoKZSt1bUUKNwr9SB5-59">
          <mxGeometry width="30" height="30" as="geometry" />
        </mxCell>
        <mxCell id="IadoKZSt1bUUKNwr9SB5-61" value="student_id" style="shape=partialRectangle;top=0;left=0;right=0;bottom=0;html=1;align=left;verticalAlign=top;fillColor=none;spacingLeft=34;spacingRight=4;whiteSpace=wrap;overflow=hidden;rotatable=0;points=[[0,0.5],[1,0.5]];portConstraint=eastwest;dropTarget=0;" vertex="1" parent="IadoKZSt1bUUKNwr9SB5-58">
          <mxGeometry y="56" width="230" height="26" as="geometry" />
        </mxCell>
        <mxCell id="IadoKZSt1bUUKNwr9SB5-62" value="" style="shape=partialRectangle;top=0;left=0;bottom=0;html=1;fillColor=none;align=left;verticalAlign=top;spacingLeft=4;spacingRight=4;whiteSpace=wrap;overflow=hidden;rotatable=0;points=[];portConstraint=eastwest;part=1;" vertex="1" connectable="0" parent="IadoKZSt1bUUKNwr9SB5-61">
          <mxGeometry width="30" height="26" as="geometry" />
        </mxCell>
        <mxCell id="IadoKZSt1bUUKNwr9SB5-63" value="class_id" style="shape=partialRectangle;top=0;left=0;right=0;bottom=0;html=1;align=left;verticalAlign=top;fillColor=none;spacingLeft=34;spacingRight=4;whiteSpace=wrap;overflow=hidden;rotatable=0;points=[[0,0.5],[1,0.5]];portConstraint=eastwest;dropTarget=0;" vertex="1" parent="IadoKZSt1bUUKNwr9SB5-58">
          <mxGeometry y="82" width="230" height="26" as="geometry" />
        </mxCell>
        <mxCell id="IadoKZSt1bUUKNwr9SB5-64" value="" style="shape=partialRectangle;top=0;left=0;bottom=0;html=1;fillColor=none;align=left;verticalAlign=top;spacingLeft=4;spacingRight=4;whiteSpace=wrap;overflow=hidden;rotatable=0;points=[];portConstraint=eastwest;part=1;" vertex="1" connectable="0" parent="IadoKZSt1bUUKNwr9SB5-63">
          <mxGeometry width="30" height="26" as="geometry" />
        </mxCell>
        <mxCell id="IadoKZSt1bUUKNwr9SB5-65" value="schedule_id" style="shape=partialRectangle;top=0;left=0;right=0;bottom=0;html=1;align=left;verticalAlign=top;fillColor=none;spacingLeft=34;spacingRight=4;whiteSpace=wrap;overflow=hidden;rotatable=0;points=[[0,0.5],[1,0.5]];portConstraint=eastwest;dropTarget=0;" vertex="1" parent="IadoKZSt1bUUKNwr9SB5-58">
          <mxGeometry y="108" width="230" height="26" as="geometry" />
        </mxCell>
        <mxCell id="IadoKZSt1bUUKNwr9SB5-66" value="" style="shape=partialRectangle;top=0;left=0;bottom=0;html=1;fillColor=none;align=left;verticalAlign=top;spacingLeft=4;spacingRight=4;whiteSpace=wrap;overflow=hidden;rotatable=0;points=[];portConstraint=eastwest;part=1;" vertex="1" connectable="0" parent="IadoKZSt1bUUKNwr9SB5-65">
          <mxGeometry width="30" height="26" as="geometry" />
        </mxCell>
        <mxCell id="IadoKZSt1bUUKNwr9SB5-67" value="class_name : &amp;lt;string&amp;gt;" style="shape=partialRectangle;top=0;left=0;right=0;bottom=0;html=1;align=left;verticalAlign=top;fillColor=none;spacingLeft=34;spacingRight=4;whiteSpace=wrap;overflow=hidden;rotatable=0;points=[[0,0.5],[1,0.5]];portConstraint=eastwest;dropTarget=0;" vertex="1" parent="IadoKZSt1bUUKNwr9SB5-58">
          <mxGeometry y="134" width="230" height="26" as="geometry" />
        </mxCell>
        <mxCell id="IadoKZSt1bUUKNwr9SB5-68" value="" style="shape=partialRectangle;top=0;left=0;bottom=0;html=1;fillColor=none;align=left;verticalAlign=top;spacingLeft=4;spacingRight=4;whiteSpace=wrap;overflow=hidden;rotatable=0;points=[];portConstraint=eastwest;part=1;" vertex="1" connectable="0" parent="IadoKZSt1bUUKNwr9SB5-67">
          <mxGeometry width="30" height="26" as="geometry" />
        </mxCell>
        <mxCell id="IadoKZSt1bUUKNwr9SB5-69" value="" style="edgeStyle=entityRelationEdgeStyle;fontSize=12;html=1;endArrow=ERoneToMany;exitX=1;exitY=0.5;exitDx=0;exitDy=0;" edge="1" parent="1" source="IadoKZSt1bUUKNwr9SB5-4" target="IadoKZSt1bUUKNwr9SB5-15">
          <mxGeometry x="680" y="410" width="100" height="100" as="geometry">
            <mxPoint x="1050" y="640" as="sourcePoint" />
            <mxPoint x="1150" y="540" as="targetPoint" />
          </mxGeometry>
        </mxCell>
        <mxCell id="IadoKZSt1bUUKNwr9SB5-70" value="" style="edgeStyle=entityRelationEdgeStyle;fontSize=12;html=1;endArrow=ERoneToMany;" edge="1" parent="1" source="IadoKZSt1bUUKNwr9SB5-16" target="IadoKZSt1bUUKNwr9SB5-26">
          <mxGeometry x="680" y="410" width="100" height="100" as="geometry">
            <mxPoint x="1320" y="490" as="sourcePoint" />
            <mxPoint x="1390" y="544" as="targetPoint" />
          </mxGeometry>
        </mxCell>
        <mxCell id="IadoKZSt1bUUKNwr9SB5-74" value="Student" style="swimlane;html=1;fontStyle=0;childLayout=stackLayout;horizontal=1;startSize=26;fillColor=#e0e0e0;horizontalStack=0;resizeParent=1;resizeLast=0;collapsible=1;marginBottom=0;swimlaneFillColor=#ffffff;align=center;rounded=0;shadow=0;comic=0;labelBackgroundColor=none;strokeWidth=1;fontFamily=Verdana;fontSize=14" vertex="1" parent="1">
          <mxGeometry x="1260" y="800" width="230" height="330" as="geometry" />
        </mxCell>
        <mxCell id="IadoKZSt1bUUKNwr9SB5-75" value="uniqueId Generated" style="shape=partialRectangle;top=0;left=0;right=0;bottom=1;html=1;align=left;verticalAlign=middle;fillColor=none;spacingLeft=34;spacingRight=4;whiteSpace=wrap;overflow=hidden;rotatable=0;points=[[0,0.5],[1,0.5]];portConstraint=eastwest;dropTarget=0;fontStyle=5;" vertex="1" parent="IadoKZSt1bUUKNwr9SB5-74">
          <mxGeometry y="26" width="230" height="30" as="geometry" />
        </mxCell>
        <mxCell id="IadoKZSt1bUUKNwr9SB5-76" value="PK" style="shape=partialRectangle;top=0;left=0;bottom=0;html=1;fillColor=none;align=left;verticalAlign=middle;spacingLeft=4;spacingRight=4;whiteSpace=wrap;overflow=hidden;rotatable=0;points=[];portConstraint=eastwest;part=1;" vertex="1" connectable="0" parent="IadoKZSt1bUUKNwr9SB5-75">
          <mxGeometry width="30" height="30" as="geometry" />
        </mxCell>
        <mxCell id="IadoKZSt1bUUKNwr9SB5-77" value="name : &amp;lt;string&amp;gt;&amp;nbsp;" style="shape=partialRectangle;top=0;left=0;right=0;bottom=0;html=1;align=left;verticalAlign=top;fillColor=none;spacingLeft=34;spacingRight=4;whiteSpace=wrap;overflow=hidden;rotatable=0;points=[[0,0.5],[1,0.5]];portConstraint=eastwest;dropTarget=0;" vertex="1" parent="IadoKZSt1bUUKNwr9SB5-74">
          <mxGeometry y="56" width="230" height="26" as="geometry" />
        </mxCell>
        <mxCell id="IadoKZSt1bUUKNwr9SB5-78" value="" style="shape=partialRectangle;top=0;left=0;bottom=0;html=1;fillColor=none;align=left;verticalAlign=top;spacingLeft=4;spacingRight=4;whiteSpace=wrap;overflow=hidden;rotatable=0;points=[];portConstraint=eastwest;part=1;" vertex="1" connectable="0" parent="IadoKZSt1bUUKNwr9SB5-77">
          <mxGeometry width="30" height="26" as="geometry" />
        </mxCell>
        <mxCell id="IadoKZSt1bUUKNwr9SB5-79" value="student_id&lt;br&gt;&lt;br&gt;home_address&lt;br&gt;&lt;br&gt;email&lt;br&gt;&lt;br&gt;phone_number&lt;br&gt;&lt;br&gt;parent_id&lt;br&gt;&lt;br&gt;school_id&lt;br&gt;&lt;br&gt;activeId : class_student_id&lt;br&gt;&lt;br&gt;activeAcademicYear : 2021&lt;br&gt;" style="shape=partialRectangle;top=0;left=0;right=0;bottom=0;html=1;align=left;verticalAlign=top;fillColor=none;spacingLeft=34;spacingRight=4;whiteSpace=wrap;overflow=hidden;rotatable=0;points=[[0,0.5],[1,0.5]];portConstraint=eastwest;dropTarget=0;" vertex="1" parent="IadoKZSt1bUUKNwr9SB5-74">
          <mxGeometry y="82" width="230" height="248" as="geometry" />
        </mxCell>
        <mxCell id="IadoKZSt1bUUKNwr9SB5-80" value="" style="shape=partialRectangle;top=0;left=0;bottom=0;html=1;fillColor=none;align=left;verticalAlign=top;spacingLeft=4;spacingRight=4;whiteSpace=wrap;overflow=hidden;rotatable=0;points=[];portConstraint=eastwest;part=1;" vertex="1" connectable="0" parent="IadoKZSt1bUUKNwr9SB5-79">
          <mxGeometry width="30" height="247.99999999999997" as="geometry" />
        </mxCell>
        <mxCell id="IadoKZSt1bUUKNwr9SB5-86" value="" style="edgeStyle=elbowEdgeStyle;elbow=horizontal;endArrow=classic;html=1;exitX=0;exitY=0.5;exitDx=0;exitDy=0;entryX=-0.005;entryY=0.087;entryDx=0;entryDy=0;entryPerimeter=0;" edge="1" parent="1" source="IadoKZSt1bUUKNwr9SB5-4" target="IadoKZSt1bUUKNwr9SB5-58">
          <mxGeometry x="680" y="410" width="50" height="50" as="geometry">
            <mxPoint x="670" y="620" as="sourcePoint" />
            <mxPoint x="780" y="630" as="targetPoint" />
            <Array as="points">
              <mxPoint x="680" y="520" />
            </Array>
          </mxGeometry>
        </mxCell>
        <mxCell id="IadoKZSt1bUUKNwr9SB5-88" value="" style="edgeStyle=entityRelationEdgeStyle;fontSize=12;html=1;endArrow=ERoneToMany;" edge="1" parent="1" source="IadoKZSt1bUUKNwr9SB5-27" target="IadoKZSt1bUUKNwr9SB5-37">
          <mxGeometry x="680" y="410" width="100" height="100" as="geometry">
            <mxPoint x="1320" y="501" as="sourcePoint" />
            <mxPoint x="1660" y="740" as="targetPoint" />
          </mxGeometry>
        </mxCell>
        <mxCell id="IadoKZSt1bUUKNwr9SB5-96" value="Schedule" style="swimlane;html=1;fontStyle=0;childLayout=stackLayout;horizontal=1;startSize=26;fillColor=#e0e0e0;horizontalStack=0;resizeParent=1;resizeLast=0;collapsible=1;marginBottom=0;swimlaneFillColor=#ffffff;align=center;rounded=0;shadow=0;comic=0;labelBackgroundColor=none;strokeWidth=1;fontFamily=Verdana;fontSize=14" vertex="1" parent="1">
          <mxGeometry x="790" y="1170" width="230" height="110" as="geometry" />
        </mxCell>
        <mxCell id="IadoKZSt1bUUKNwr9SB5-97" value="uniqueId Generated" style="shape=partialRectangle;top=0;left=0;right=0;bottom=1;html=1;align=left;verticalAlign=middle;fillColor=none;spacingLeft=34;spacingRight=4;whiteSpace=wrap;overflow=hidden;rotatable=0;points=[[0,0.5],[1,0.5]];portConstraint=eastwest;dropTarget=0;fontStyle=5;" vertex="1" parent="IadoKZSt1bUUKNwr9SB5-96">
          <mxGeometry y="26" width="230" height="30" as="geometry" />
        </mxCell>
        <mxCell id="IadoKZSt1bUUKNwr9SB5-98" value="PK" style="shape=partialRectangle;top=0;left=0;bottom=0;html=1;fillColor=none;align=left;verticalAlign=middle;spacingLeft=4;spacingRight=4;whiteSpace=wrap;overflow=hidden;rotatable=0;points=[];portConstraint=eastwest;part=1;" vertex="1" connectable="0" parent="IadoKZSt1bUUKNwr9SB5-97">
          <mxGeometry width="30" height="30" as="geometry" />
        </mxCell>
        <mxCell id="IadoKZSt1bUUKNwr9SB5-99" value="name : &amp;lt;string&amp;gt;&amp;nbsp;" style="shape=partialRectangle;top=0;left=0;right=0;bottom=0;html=1;align=left;verticalAlign=top;fillColor=none;spacingLeft=34;spacingRight=4;whiteSpace=wrap;overflow=hidden;rotatable=0;points=[[0,0.5],[1,0.5]];portConstraint=eastwest;dropTarget=0;" vertex="1" parent="IadoKZSt1bUUKNwr9SB5-96">
          <mxGeometry y="56" width="230" height="26" as="geometry" />
        </mxCell>
        <mxCell id="IadoKZSt1bUUKNwr9SB5-100" value="" style="shape=partialRectangle;top=0;left=0;bottom=0;html=1;fillColor=none;align=left;verticalAlign=top;spacingLeft=4;spacingRight=4;whiteSpace=wrap;overflow=hidden;rotatable=0;points=[];portConstraint=eastwest;part=1;" vertex="1" connectable="0" parent="IadoKZSt1bUUKNwr9SB5-99">
          <mxGeometry width="30" height="26" as="geometry" />
        </mxCell>
        <mxCell id="IadoKZSt1bUUKNwr9SB5-101" value="&lt;span style=&quot;font-family: &amp;#34;verdana&amp;#34; ; font-size: 14px ; text-align: center&quot;&gt;class_student_id&lt;/span&gt;" style="shape=partialRectangle;top=0;left=0;right=0;bottom=0;html=1;align=left;verticalAlign=top;fillColor=none;spacingLeft=34;spacingRight=4;whiteSpace=wrap;overflow=hidden;rotatable=0;points=[[0,0.5],[1,0.5]];portConstraint=eastwest;dropTarget=0;" vertex="1" parent="IadoKZSt1bUUKNwr9SB5-96">
          <mxGeometry y="82" width="230" height="28" as="geometry" />
        </mxCell>
        <mxCell id="IadoKZSt1bUUKNwr9SB5-102" value="" style="shape=partialRectangle;top=0;left=0;bottom=0;html=1;fillColor=none;align=left;verticalAlign=top;spacingLeft=4;spacingRight=4;whiteSpace=wrap;overflow=hidden;rotatable=0;points=[];portConstraint=eastwest;part=1;" vertex="1" connectable="0" parent="IadoKZSt1bUUKNwr9SB5-101">
          <mxGeometry width="30" height="28" as="geometry" />
        </mxCell>
        <mxCell id="IadoKZSt1bUUKNwr9SB5-105" value="" style="edgeStyle=elbowEdgeStyle;elbow=vertical;endArrow=classic;html=1;entryX=0.527;entryY=1.108;entryDx=0;entryDy=0;entryPerimeter=0;exitX=0.5;exitY=0;exitDx=0;exitDy=0;" edge="1" parent="1" source="IadoKZSt1bUUKNwr9SB5-96" target="IadoKZSt1bUUKNwr9SB5-67">
          <mxGeometry x="680" y="550" width="50" height="50" as="geometry">
            <mxPoint x="1350" y="910" as="sourcePoint" />
            <mxPoint x="1400" y="860" as="targetPoint" />
            <Array as="points">
              <mxPoint x="1010" y="1110" />
              <mxPoint x="1310" y="1020" />
            </Array>
          </mxGeometry>
        </mxCell>
        <mxCell id="IadoKZSt1bUUKNwr9SB5-106" value="" style="edgeStyle=elbowEdgeStyle;elbow=horizontal;endArrow=classic;html=1;exitX=0;exitY=0.5;exitDx=0;exitDy=0;entryX=1;entryY=0.5;entryDx=0;entryDy=0;" edge="1" parent="1" source="IadoKZSt1bUUKNwr9SB5-77" target="IadoKZSt1bUUKNwr9SB5-61">
          <mxGeometry x="680" y="550" width="50" height="50" as="geometry">
            <mxPoint x="1350" y="990" as="sourcePoint" />
            <mxPoint x="1400" y="940" as="targetPoint" />
          </mxGeometry>
        </mxCell>
        <mxCell id="IadoKZSt1bUUKNwr9SB5-107" value="one class, many student" style="text;html=1;strokeColor=none;fillColor=none;align=center;verticalAlign=middle;whiteSpace=wrap;rounded=0;" vertex="1" parent="1">
          <mxGeometry x="885" y="587" width="135" height="20" as="geometry" />
        </mxCell>
        <mxCell id="IadoKZSt1bUUKNwr9SB5-108" value="one subject, many lesson" style="text;html=1;strokeColor=none;fillColor=none;align=center;verticalAlign=middle;whiteSpace=wrap;rounded=0;" vertex="1" parent="1">
          <mxGeometry x="1070" y="680" width="165" height="20" as="geometry" />
        </mxCell>
        <mxCell id="IadoKZSt1bUUKNwr9SB5-109" value="one lesson, many assignment" style="text;html=1;strokeColor=none;fillColor=none;align=center;verticalAlign=middle;whiteSpace=wrap;rounded=0;" vertex="1" parent="1">
          <mxGeometry x="1435" y="660" width="165" height="20" as="geometry" />
        </mxCell>
        <mxCell id="IadoKZSt1bUUKNwr9SB5-113" value="" style="endArrow=none;dashed=1;html=1;dashPattern=1 3;strokeWidth=2;exitX=0.461;exitY=-0.006;exitDx=0;exitDy=0;exitPerimeter=0;" edge="1" parent="1" source="IadoKZSt1bUUKNwr9SB5-58" target="IadoKZSt1bUUKNwr9SB5-37">
          <mxGeometry width="50" height="50" relative="1" as="geometry">
            <mxPoint x="1720" y="810" as="sourcePoint" />
            <mxPoint x="1770" y="760" as="targetPoint" />
            <Array as="points">
              <mxPoint x="916" y="780" />
              <mxPoint x="1780" y="780" />
            </Array>
          </mxGeometry>
        </mxCell>
        <mxCell id="IadoKZSt1bUUKNwr9SB5-114" value="&lt;b&gt;caching optimisasi&lt;/b&gt;" style="text;html=1;strokeColor=none;fillColor=none;align=center;verticalAlign=middle;whiteSpace=wrap;rounded=0;" vertex="1" parent="1">
          <mxGeometry x="1000" y="790" width="40" height="20" as="geometry" />
        </mxCell>
        <mxCell id="IadoKZSt1bUUKNwr9SB5-169" value="File" style="swimlane;html=1;fontStyle=0;childLayout=stackLayout;horizontal=1;startSize=26;fillColor=#e0e0e0;horizontalStack=0;resizeParent=1;resizeLast=0;collapsible=1;marginBottom=0;swimlaneFillColor=#ffffff;align=center;rounded=0;shadow=0;comic=0;labelBackgroundColor=none;strokeWidth=1;fontFamily=Verdana;fontSize=14" vertex="1" parent="1">
          <mxGeometry x="1990" y="480" width="230" height="230" as="geometry">
            <mxRectangle x="1010" y="1060" width="70" height="26" as="alternateBounds" />
          </mxGeometry>
        </mxCell>
        <mxCell id="IadoKZSt1bUUKNwr9SB5-170" value="uniqueId Generated" style="shape=partialRectangle;top=0;left=0;right=0;bottom=1;html=1;align=left;verticalAlign=middle;fillColor=none;spacingLeft=34;spacingRight=4;whiteSpace=wrap;overflow=hidden;rotatable=0;points=[[0,0.5],[1,0.5]];portConstraint=eastwest;dropTarget=0;fontStyle=5;" vertex="1" parent="IadoKZSt1bUUKNwr9SB5-169">
          <mxGeometry y="26" width="230" height="30" as="geometry" />
        </mxCell>
        <mxCell id="IadoKZSt1bUUKNwr9SB5-171" value="PK" style="shape=partialRectangle;top=0;left=0;bottom=0;html=1;fillColor=none;align=left;verticalAlign=middle;spacingLeft=4;spacingRight=4;whiteSpace=wrap;overflow=hidden;rotatable=0;points=[];portConstraint=eastwest;part=1;" vertex="1" connectable="0" parent="IadoKZSt1bUUKNwr9SB5-170">
          <mxGeometry width="30" height="30" as="geometry" />
        </mxCell>
        <mxCell id="IadoKZSt1bUUKNwr9SB5-172" value="name : &amp;lt;string&amp;gt;&amp;nbsp;" style="shape=partialRectangle;top=0;left=0;right=0;bottom=0;html=1;align=left;verticalAlign=top;fillColor=none;spacingLeft=34;spacingRight=4;whiteSpace=wrap;overflow=hidden;rotatable=0;points=[[0,0.5],[1,0.5]];portConstraint=eastwest;dropTarget=0;" vertex="1" parent="IadoKZSt1bUUKNwr9SB5-169">
          <mxGeometry y="56" width="230" height="26" as="geometry" />
        </mxCell>
        <mxCell id="IadoKZSt1bUUKNwr9SB5-173" value="" style="shape=partialRectangle;top=0;left=0;bottom=0;html=1;fillColor=none;align=left;verticalAlign=top;spacingLeft=4;spacingRight=4;whiteSpace=wrap;overflow=hidden;rotatable=0;points=[];portConstraint=eastwest;part=1;" vertex="1" connectable="0" parent="IadoKZSt1bUUKNwr9SB5-172">
          <mxGeometry width="30" height="26" as="geometry" />
        </mxCell>
        <mxCell id="IadoKZSt1bUUKNwr9SB5-174" value="assignment_id" style="shape=partialRectangle;top=0;left=0;right=0;bottom=0;html=1;align=left;verticalAlign=top;fillColor=none;spacingLeft=34;spacingRight=4;whiteSpace=wrap;overflow=hidden;rotatable=0;points=[[0,0.5],[1,0.5]];portConstraint=eastwest;dropTarget=0;" vertex="1" parent="IadoKZSt1bUUKNwr9SB5-169">
          <mxGeometry y="82" width="230" height="28" as="geometry" />
        </mxCell>
        <mxCell id="IadoKZSt1bUUKNwr9SB5-175" value="" style="shape=partialRectangle;top=0;left=0;bottom=0;html=1;fillColor=none;align=left;verticalAlign=top;spacingLeft=4;spacingRight=4;whiteSpace=wrap;overflow=hidden;rotatable=0;points=[];portConstraint=eastwest;part=1;" vertex="1" connectable="0" parent="IadoKZSt1bUUKNwr9SB5-174">
          <mxGeometry width="30" height="28" as="geometry" />
        </mxCell>
        <mxCell id="IadoKZSt1bUUKNwr9SB5-176" value="&lt;span style=&quot;font-family: &amp;#34;verdana&amp;#34; ; font-size: 14px ; text-align: center&quot;&gt;class_student_id&lt;br&gt;&lt;br&gt;&lt;/span&gt;&lt;span&gt;description&lt;br&gt;&lt;/span&gt;&lt;span style=&quot;font-family: &amp;#34;verdana&amp;#34; ; font-size: 14px ; text-align: center&quot;&gt;&lt;br&gt;assignment_type&lt;br&gt;&lt;br&gt;url&lt;br&gt;&lt;/span&gt;" style="shape=partialRectangle;top=0;left=0;right=0;bottom=0;html=1;align=left;verticalAlign=top;fillColor=none;spacingLeft=34;spacingRight=4;whiteSpace=wrap;overflow=hidden;rotatable=0;points=[[0,0.5],[1,0.5]];portConstraint=eastwest;dropTarget=0;" vertex="1" parent="IadoKZSt1bUUKNwr9SB5-169">
          <mxGeometry y="110" width="230" height="120" as="geometry" />
        </mxCell>
        <mxCell id="IadoKZSt1bUUKNwr9SB5-177" value="" style="shape=partialRectangle;top=0;left=0;bottom=0;html=1;fillColor=none;align=left;verticalAlign=top;spacingLeft=4;spacingRight=4;whiteSpace=wrap;overflow=hidden;rotatable=0;points=[];portConstraint=eastwest;part=1;" vertex="1" connectable="0" parent="IadoKZSt1bUUKNwr9SB5-176">
          <mxGeometry width="30" height="120.00000000000001" as="geometry" />
        </mxCell>
        <mxCell id="IadoKZSt1bUUKNwr9SB5-178" value="Teacher" style="swimlane;html=1;fontStyle=0;childLayout=stackLayout;horizontal=1;startSize=26;fillColor=#e0e0e0;horizontalStack=0;resizeParent=1;resizeLast=0;collapsible=1;marginBottom=0;swimlaneFillColor=#ffffff;align=center;rounded=0;shadow=0;comic=0;labelBackgroundColor=none;strokeWidth=1;fontFamily=Verdana;fontSize=14" vertex="1" parent="1">
          <mxGeometry x="1150" y="215" width="230" height="200" as="geometry">
            <mxRectangle x="1010" y="1060" width="70" height="26" as="alternateBounds" />
          </mxGeometry>
        </mxCell>
        <mxCell id="IadoKZSt1bUUKNwr9SB5-179" value="uniqueId Generated" style="shape=partialRectangle;top=0;left=0;right=0;bottom=1;html=1;align=left;verticalAlign=middle;fillColor=none;spacingLeft=34;spacingRight=4;whiteSpace=wrap;overflow=hidden;rotatable=0;points=[[0,0.5],[1,0.5]];portConstraint=eastwest;dropTarget=0;fontStyle=5;" vertex="1" parent="IadoKZSt1bUUKNwr9SB5-178">
          <mxGeometry y="26" width="230" height="30" as="geometry" />
        </mxCell>
        <mxCell id="IadoKZSt1bUUKNwr9SB5-180" value="PK" style="shape=partialRectangle;top=0;left=0;bottom=0;html=1;fillColor=none;align=left;verticalAlign=middle;spacingLeft=4;spacingRight=4;whiteSpace=wrap;overflow=hidden;rotatable=0;points=[];portConstraint=eastwest;part=1;" vertex="1" connectable="0" parent="IadoKZSt1bUUKNwr9SB5-179">
          <mxGeometry width="30" height="30" as="geometry" />
        </mxCell>
        <mxCell id="IadoKZSt1bUUKNwr9SB5-181" value="name : &amp;lt;string&amp;gt;&amp;nbsp;" style="shape=partialRectangle;top=0;left=0;right=0;bottom=0;html=1;align=left;verticalAlign=top;fillColor=none;spacingLeft=34;spacingRight=4;whiteSpace=wrap;overflow=hidden;rotatable=0;points=[[0,0.5],[1,0.5]];portConstraint=eastwest;dropTarget=0;" vertex="1" parent="IadoKZSt1bUUKNwr9SB5-178">
          <mxGeometry y="56" width="230" height="26" as="geometry" />
        </mxCell>
        <mxCell id="IadoKZSt1bUUKNwr9SB5-182" value="" style="shape=partialRectangle;top=0;left=0;bottom=0;html=1;fillColor=none;align=left;verticalAlign=top;spacingLeft=4;spacingRight=4;whiteSpace=wrap;overflow=hidden;rotatable=0;points=[];portConstraint=eastwest;part=1;" vertex="1" connectable="0" parent="IadoKZSt1bUUKNwr9SB5-181">
          <mxGeometry width="30" height="26" as="geometry" />
        </mxCell>
        <mxCell id="IadoKZSt1bUUKNwr9SB5-183" value="teacher_id" style="shape=partialRectangle;top=0;left=0;right=0;bottom=0;html=1;align=left;verticalAlign=top;fillColor=none;spacingLeft=34;spacingRight=4;whiteSpace=wrap;overflow=hidden;rotatable=0;points=[[0,0.5],[1,0.5]];portConstraint=eastwest;dropTarget=0;" vertex="1" parent="IadoKZSt1bUUKNwr9SB5-178">
          <mxGeometry y="82" width="230" height="28" as="geometry" />
        </mxCell>
        <mxCell id="IadoKZSt1bUUKNwr9SB5-184" value="" style="shape=partialRectangle;top=0;left=0;bottom=0;html=1;fillColor=none;align=left;verticalAlign=top;spacingLeft=4;spacingRight=4;whiteSpace=wrap;overflow=hidden;rotatable=0;points=[];portConstraint=eastwest;part=1;" vertex="1" connectable="0" parent="IadoKZSt1bUUKNwr9SB5-183">
          <mxGeometry width="30" height="28" as="geometry" />
        </mxCell>
        <mxCell id="IadoKZSt1bUUKNwr9SB5-185" value="home_address&lt;br&gt;&lt;br&gt;phone_number&lt;br&gt;&lt;br&gt;email" style="shape=partialRectangle;top=0;left=0;right=0;bottom=0;html=1;align=left;verticalAlign=top;fillColor=none;spacingLeft=34;spacingRight=4;whiteSpace=wrap;overflow=hidden;rotatable=0;points=[[0,0.5],[1,0.5]];portConstraint=eastwest;dropTarget=0;" vertex="1" parent="IadoKZSt1bUUKNwr9SB5-178">
          <mxGeometry y="110" width="230" height="90" as="geometry" />
        </mxCell>
        <mxCell id="IadoKZSt1bUUKNwr9SB5-186" value="" style="shape=partialRectangle;top=0;left=0;bottom=0;html=1;fillColor=none;align=left;verticalAlign=top;spacingLeft=4;spacingRight=4;whiteSpace=wrap;overflow=hidden;rotatable=0;points=[];portConstraint=eastwest;part=1;" vertex="1" connectable="0" parent="IadoKZSt1bUUKNwr9SB5-185">
          <mxGeometry width="30" height="90" as="geometry" />
        </mxCell>
        <mxCell id="IadoKZSt1bUUKNwr9SB5-187" value="Schedule Lesson" style="swimlane;html=1;fontStyle=0;childLayout=stackLayout;horizontal=1;startSize=26;fillColor=#e0e0e0;horizontalStack=0;resizeParent=1;resizeLast=0;collapsible=1;marginBottom=0;swimlaneFillColor=#ffffff;align=center;rounded=0;shadow=0;comic=0;labelBackgroundColor=none;strokeWidth=1;fontFamily=Verdana;fontSize=14" vertex="1" parent="1">
          <mxGeometry x="1090" y="1190" width="230" height="180" as="geometry" />
        </mxCell>
        <mxCell id="IadoKZSt1bUUKNwr9SB5-188" value="uniqueId Generated" style="shape=partialRectangle;top=0;left=0;right=0;bottom=1;html=1;align=left;verticalAlign=middle;fillColor=none;spacingLeft=34;spacingRight=4;whiteSpace=wrap;overflow=hidden;rotatable=0;points=[[0,0.5],[1,0.5]];portConstraint=eastwest;dropTarget=0;fontStyle=5;" vertex="1" parent="IadoKZSt1bUUKNwr9SB5-187">
          <mxGeometry y="26" width="230" height="30" as="geometry" />
        </mxCell>
        <mxCell id="IadoKZSt1bUUKNwr9SB5-189" value="PK" style="shape=partialRectangle;top=0;left=0;bottom=0;html=1;fillColor=none;align=left;verticalAlign=middle;spacingLeft=4;spacingRight=4;whiteSpace=wrap;overflow=hidden;rotatable=0;points=[];portConstraint=eastwest;part=1;" vertex="1" connectable="0" parent="IadoKZSt1bUUKNwr9SB5-188">
          <mxGeometry width="30" height="30" as="geometry" />
        </mxCell>
        <mxCell id="IadoKZSt1bUUKNwr9SB5-190" value="schedule_id" style="shape=partialRectangle;top=0;left=0;right=0;bottom=0;html=1;align=left;verticalAlign=top;fillColor=none;spacingLeft=34;spacingRight=4;whiteSpace=wrap;overflow=hidden;rotatable=0;points=[[0,0.5],[1,0.5]];portConstraint=eastwest;dropTarget=0;" vertex="1" parent="IadoKZSt1bUUKNwr9SB5-187">
          <mxGeometry y="56" width="230" height="26" as="geometry" />
        </mxCell>
        <mxCell id="IadoKZSt1bUUKNwr9SB5-191" value="" style="shape=partialRectangle;top=0;left=0;bottom=0;html=1;fillColor=none;align=left;verticalAlign=top;spacingLeft=4;spacingRight=4;whiteSpace=wrap;overflow=hidden;rotatable=0;points=[];portConstraint=eastwest;part=1;" vertex="1" connectable="0" parent="IadoKZSt1bUUKNwr9SB5-190">
          <mxGeometry width="30" height="26" as="geometry" />
        </mxCell>
        <mxCell id="IadoKZSt1bUUKNwr9SB5-192" value="&lt;span style=&quot;font-family: &amp;#34;verdana&amp;#34; ; font-size: 14px ; text-align: center&quot;&gt;lesson_id&lt;br&gt;&lt;br&gt;start_date&lt;br&gt;&lt;br&gt;end_date&lt;br&gt;&lt;/span&gt;" style="shape=partialRectangle;top=0;left=0;right=0;bottom=0;html=1;align=left;verticalAlign=top;fillColor=none;spacingLeft=34;spacingRight=4;whiteSpace=wrap;overflow=hidden;rotatable=0;points=[[0,0.5],[1,0.5]];portConstraint=eastwest;dropTarget=0;" vertex="1" parent="IadoKZSt1bUUKNwr9SB5-187">
          <mxGeometry y="82" width="230" height="98" as="geometry" />
        </mxCell>
        <mxCell id="IadoKZSt1bUUKNwr9SB5-193" value="" style="shape=partialRectangle;top=0;left=0;bottom=0;html=1;fillColor=none;align=left;verticalAlign=top;spacingLeft=4;spacingRight=4;whiteSpace=wrap;overflow=hidden;rotatable=0;points=[];portConstraint=eastwest;part=1;" vertex="1" connectable="0" parent="IadoKZSt1bUUKNwr9SB5-192">
          <mxGeometry width="30" height="97.99999999999999" as="geometry" />
        </mxCell>
        <mxCell id="IadoKZSt1bUUKNwr9SB5-194" value="&lt;b&gt;caching optimisasi&lt;/b&gt;" style="text;html=1;strokeColor=none;fillColor=none;align=center;verticalAlign=middle;whiteSpace=wrap;rounded=0;" vertex="1" parent="1">
          <mxGeometry x="1150" y="700" width="190" height="20" as="geometry" />
        </mxCell>
        <mxCell id="IadoKZSt1bUUKNwr9SB5-195" value="&lt;b&gt;caching optimisasi&lt;/b&gt;" style="text;html=1;strokeColor=none;fillColor=none;align=center;verticalAlign=middle;whiteSpace=wrap;rounded=0;" vertex="1" parent="1">
          <mxGeometry x="1420" y="690" width="190" height="20" as="geometry" />
        </mxCell>
        <mxCell id="IadoKZSt1bUUKNwr9SB5-196" value="&lt;b&gt;caching optimisasi&lt;/b&gt;" style="text;html=1;strokeColor=none;fillColor=none;align=center;verticalAlign=middle;whiteSpace=wrap;rounded=0;" vertex="1" parent="1">
          <mxGeometry x="1770" y="760" width="190" height="20" as="geometry" />
        </mxCell>
        <mxCell id="IadoKZSt1bUUKNwr9SB5-197" value="" style="curved=1;endArrow=classic;html=1;exitX=1;exitY=0.5;exitDx=0;exitDy=0;" edge="1" parent="1" source="IadoKZSt1bUUKNwr9SB5-40" target="IadoKZSt1bUUKNwr9SB5-169">
          <mxGeometry width="50" height="50" relative="1" as="geometry">
            <mxPoint x="1630" y="920" as="sourcePoint" />
            <mxPoint x="1750" y="900" as="targetPoint" />
            <Array as="points">
              <mxPoint x="1950" y="550" />
              <mxPoint x="1950" y="620" />
            </Array>
          </mxGeometry>
        </mxCell>
        <mxCell id="IadoKZSt1bUUKNwr9SB5-198" value="School" style="swimlane;html=1;fontStyle=0;childLayout=stackLayout;horizontal=1;startSize=26;fillColor=#e0e0e0;horizontalStack=0;resizeParent=1;resizeLast=0;collapsible=1;marginBottom=0;swimlaneFillColor=#ffffff;align=center;rounded=0;shadow=0;comic=0;labelBackgroundColor=none;strokeWidth=1;fontFamily=Verdana;fontSize=14" vertex="1" parent="1">
          <mxGeometry x="500" y="288" width="230" height="82" as="geometry">
            <mxRectangle x="1010" y="1060" width="70" height="26" as="alternateBounds" />
          </mxGeometry>
        </mxCell>
        <mxCell id="IadoKZSt1bUUKNwr9SB5-199" value="uniqueId Generated" style="shape=partialRectangle;top=0;left=0;right=0;bottom=1;html=1;align=left;verticalAlign=middle;fillColor=none;spacingLeft=34;spacingRight=4;whiteSpace=wrap;overflow=hidden;rotatable=0;points=[[0,0.5],[1,0.5]];portConstraint=eastwest;dropTarget=0;fontStyle=5;" vertex="1" parent="IadoKZSt1bUUKNwr9SB5-198">
          <mxGeometry y="26" width="230" height="30" as="geometry" />
        </mxCell>
        <mxCell id="IadoKZSt1bUUKNwr9SB5-200" value="PK" style="shape=partialRectangle;top=0;left=0;bottom=0;html=1;fillColor=none;align=left;verticalAlign=middle;spacingLeft=4;spacingRight=4;whiteSpace=wrap;overflow=hidden;rotatable=0;points=[];portConstraint=eastwest;part=1;" vertex="1" connectable="0" parent="IadoKZSt1bUUKNwr9SB5-199">
          <mxGeometry width="30" height="30" as="geometry" />
        </mxCell>
        <mxCell id="IadoKZSt1bUUKNwr9SB5-201" value="name : &amp;lt;string&amp;gt;&amp;nbsp;" style="shape=partialRectangle;top=0;left=0;right=0;bottom=0;html=1;align=left;verticalAlign=top;fillColor=none;spacingLeft=34;spacingRight=4;whiteSpace=wrap;overflow=hidden;rotatable=0;points=[[0,0.5],[1,0.5]];portConstraint=eastwest;dropTarget=0;" vertex="1" parent="IadoKZSt1bUUKNwr9SB5-198">
          <mxGeometry y="56" width="230" height="26" as="geometry" />
        </mxCell>
        <mxCell id="IadoKZSt1bUUKNwr9SB5-202" value="" style="shape=partialRectangle;top=0;left=0;bottom=0;html=1;fillColor=none;align=left;verticalAlign=top;spacingLeft=4;spacingRight=4;whiteSpace=wrap;overflow=hidden;rotatable=0;points=[];portConstraint=eastwest;part=1;" vertex="1" connectable="0" parent="IadoKZSt1bUUKNwr9SB5-201">
          <mxGeometry width="30" height="26" as="geometry" />
        </mxCell>
        <mxCell id="IadoKZSt1bUUKNwr9SB5-208" value="&lt;div style=&quot;background-color: rgb(255 , 255 , 255) ; font-family: &amp;quot;consolas&amp;quot; , &amp;quot;courier new&amp;quot; , monospace ; font-size: 14px ; line-height: 19px&quot;&gt;&lt;div&gt;Data&amp;nbsp;structure:&lt;/div&gt;&lt;div&gt;---------------&lt;/div&gt;&lt;div&gt;-&amp;nbsp;School&amp;nbsp;&lt;/div&gt;&lt;div&gt;&lt;span style=&quot;color: #222222&quot;&gt;{&lt;/span&gt;&lt;/div&gt;&lt;div&gt;&amp;nbsp;&amp;nbsp;&amp;nbsp;&amp;nbsp;&lt;span style=&quot;color: #cd3131&quot;&gt;id&lt;/span&gt;&amp;nbsp;&lt;span style=&quot;color: #222222&quot;&gt;:&lt;/span&gt;&amp;nbsp;&lt;span style=&quot;color: #cd3131&quot;&gt;&amp;lt;auto_generated&amp;gt;&lt;/span&gt;&lt;/div&gt;&lt;div&gt;&amp;nbsp;&amp;nbsp;&amp;nbsp;&amp;nbsp;&lt;span style=&quot;color: #cd3131&quot;&gt;name&lt;/span&gt;&amp;nbsp;&lt;span style=&quot;color: #cd3131&quot;&gt;:&lt;/span&gt;&amp;nbsp;&lt;span style=&quot;color: #cd3131&quot;&gt;&amp;lt;string&amp;gt;&lt;/span&gt;&lt;/div&gt;&lt;div&gt;&amp;nbsp;&amp;nbsp;&amp;nbsp;&amp;nbsp;&lt;span style=&quot;color: #cd3131&quot;&gt;address&lt;/span&gt;&amp;nbsp;&lt;span style=&quot;color: #cd3131&quot;&gt;:&lt;/span&gt;&amp;nbsp;&lt;span style=&quot;color: #cd3131&quot;&gt;&amp;lt;string&amp;gt;&lt;/span&gt;&lt;/div&gt;&lt;div&gt;&amp;nbsp;&amp;nbsp;&amp;nbsp;&amp;nbsp;&lt;span style=&quot;color: #cd3131&quot;&gt;students&lt;/span&gt;&amp;nbsp;&lt;span style=&quot;color: #cd3131&quot;&gt;:&lt;/span&gt;&amp;nbsp;&lt;span style=&quot;color: #222222&quot;&gt;[&lt;/span&gt;&lt;span style=&quot;color: #cd3131&quot;&gt;&amp;lt;Student&amp;gt;&lt;/span&gt;&lt;span style=&quot;color: #222222&quot;&gt;]&lt;/span&gt;&lt;/div&gt;&lt;div&gt;&amp;nbsp;&amp;nbsp;&amp;nbsp;&amp;nbsp;&lt;span style=&quot;color: #cd3131&quot;&gt;teachers&lt;/span&gt;&amp;nbsp;&lt;span style=&quot;color: #cd3131&quot;&gt;:&lt;/span&gt;&amp;nbsp;&lt;span style=&quot;color: #222222&quot;&gt;[&lt;/span&gt;&lt;span style=&quot;color: #cd3131&quot;&gt;&amp;lt;Teacher&amp;gt;&lt;/span&gt;&lt;span style=&quot;color: #222222&quot;&gt;]&lt;/span&gt;&lt;/div&gt;&lt;div&gt;&lt;span style=&quot;color: #222222&quot;&gt;}&lt;/span&gt;&lt;/div&gt;&lt;div&gt;-&amp;nbsp;Student&lt;/div&gt;&lt;div&gt;&lt;span style=&quot;color: #222222&quot;&gt;{&lt;/span&gt;&lt;/div&gt;&lt;div&gt;&amp;nbsp;&amp;nbsp;&amp;nbsp;&lt;span style=&quot;color: #cd3131&quot;&gt;id&lt;/span&gt;&amp;nbsp;&lt;span style=&quot;color: #222222&quot;&gt;:&lt;/span&gt;&amp;nbsp;&lt;span style=&quot;color: #cd3131&quot;&gt;&amp;lt;auto&lt;/span&gt;&amp;nbsp;&lt;span style=&quot;color: #cd3131&quot;&gt;generated&amp;gt;&lt;/span&gt;&lt;/div&gt;&lt;div&gt;&amp;nbsp;&amp;nbsp;&amp;nbsp;&lt;span style=&quot;color: #cd3131&quot;&gt;name&lt;/span&gt;&amp;nbsp;&lt;span style=&quot;color: #cd3131&quot;&gt;:&lt;/span&gt;&amp;nbsp;&lt;span style=&quot;color: #cd3131&quot;&gt;&amp;lt;string&amp;gt;&lt;/span&gt;&lt;/div&gt;&lt;div&gt;&amp;nbsp;&amp;nbsp;&amp;nbsp;&lt;span style=&quot;color: #cd3131&quot;&gt;home_address&lt;/span&gt;&amp;nbsp;&lt;span style=&quot;color: #cd3131&quot;&gt;:&lt;/span&gt;&amp;nbsp;&lt;span style=&quot;color: #cd3131&quot;&gt;&amp;lt;string&amp;gt;&lt;/span&gt;&lt;/div&gt;&lt;div&gt;&amp;nbsp;&amp;nbsp;&amp;nbsp;&lt;span style=&quot;color: #cd3131&quot;&gt;email&lt;/span&gt;&amp;nbsp;&lt;span style=&quot;color: #cd3131&quot;&gt;:&lt;/span&gt;&amp;nbsp;&lt;span style=&quot;color: #cd3131&quot;&gt;&amp;lt;string&amp;gt;&lt;/span&gt;&lt;/div&gt;&lt;div&gt;&amp;nbsp;&amp;nbsp;&amp;nbsp;&lt;span style=&quot;color: #cd3131&quot;&gt;phone_number&lt;/span&gt;&amp;nbsp;&lt;span style=&quot;color: #cd3131&quot;&gt;:&lt;/span&gt;&amp;nbsp;&lt;span style=&quot;color: #cd3131&quot;&gt;&amp;lt;string&amp;gt;&lt;/span&gt;&lt;/div&gt;&lt;div&gt;&amp;nbsp;&amp;nbsp;&amp;nbsp;&lt;span style=&quot;color: #cd3131&quot;&gt;parent&lt;/span&gt;&amp;nbsp;&lt;span style=&quot;color: #cd3131&quot;&gt;:&lt;/span&gt;&amp;nbsp;&lt;span style=&quot;color: #cd3131&quot;&gt;&amp;lt;Parent&amp;gt;&lt;/span&gt;&lt;/div&gt;&lt;div&gt;&amp;nbsp;&amp;nbsp;&amp;nbsp;&lt;span style=&quot;color: #cd3131&quot;&gt;class&lt;/span&gt;&amp;nbsp;&lt;span style=&quot;color: #cd3131&quot;&gt;:&lt;/span&gt;&amp;nbsp;&lt;span style=&quot;color: #222222&quot;&gt;[&lt;/span&gt;&lt;span style=&quot;color: #cd3131&quot;&gt;&amp;lt;Class&amp;gt;&lt;/span&gt;&lt;span style=&quot;color: #222222&quot;&gt;]&lt;/span&gt;&lt;/div&gt;&lt;div&gt;&lt;span style=&quot;color: #222222&quot;&gt;}&lt;/span&gt;&lt;/div&gt;&lt;div&gt;-&amp;nbsp;Parent&lt;/div&gt;&lt;div&gt;&lt;span style=&quot;color: #222222&quot;&gt;{&lt;/span&gt;&lt;/div&gt;&lt;div&gt;&amp;nbsp;&amp;nbsp;&amp;nbsp;&amp;nbsp;&lt;span style=&quot;color: #cd3131&quot;&gt;id&lt;/span&gt;&amp;nbsp;&lt;span style=&quot;color: #222222&quot;&gt;:&lt;/span&gt;&amp;nbsp;&lt;span style=&quot;color: #cd3131&quot;&gt;&amp;lt;auto&lt;/span&gt;&amp;nbsp;&lt;span style=&quot;color: #cd3131&quot;&gt;generated&amp;gt;&lt;/span&gt;&lt;/div&gt;&lt;div&gt;&amp;nbsp;&amp;nbsp;&amp;nbsp;&amp;nbsp;&lt;span style=&quot;color: #cd3131&quot;&gt;name&lt;/span&gt;&amp;nbsp;&lt;span style=&quot;color: #cd3131&quot;&gt;:&lt;/span&gt;&amp;nbsp;&lt;span style=&quot;color: #cd3131&quot;&gt;&amp;lt;string&amp;gt;&lt;/span&gt;&lt;/div&gt;&lt;div&gt;&amp;nbsp;&amp;nbsp;&amp;nbsp;&amp;nbsp;&lt;span style=&quot;color: #cd3131&quot;&gt;phone_number&lt;/span&gt;&amp;nbsp;&lt;span style=&quot;color: #cd3131&quot;&gt;:&lt;/span&gt;&amp;nbsp;&lt;span style=&quot;color: #cd3131&quot;&gt;&amp;lt;string&amp;gt;&lt;/span&gt;&lt;/div&gt;&lt;div&gt;&amp;nbsp;&amp;nbsp;&amp;nbsp;&amp;nbsp;&lt;span style=&quot;color: #cd3131&quot;&gt;email&lt;/span&gt;&amp;nbsp;&lt;span style=&quot;color: #cd3131&quot;&gt;:&lt;/span&gt;&amp;nbsp;&lt;span style=&quot;color: #cd3131&quot;&gt;&amp;lt;string&amp;gt;&lt;/span&gt;&lt;/div&gt;&lt;div&gt;&amp;nbsp;&amp;nbsp;&amp;nbsp;&amp;nbsp;&lt;span style=&quot;color: #cd3131&quot;&gt;home_address&lt;/span&gt;&amp;nbsp;&lt;span style=&quot;color: #cd3131&quot;&gt;:&lt;/span&gt;&amp;nbsp;&lt;span style=&quot;color: #cd3131&quot;&gt;&amp;lt;string&amp;gt;&lt;/span&gt;&lt;/div&gt;&lt;div&gt;&lt;span style=&quot;color: #222222&quot;&gt;}&lt;/span&gt;&lt;/div&gt;&lt;div&gt;-&amp;nbsp;Teacher&lt;/div&gt;&lt;div&gt;&lt;span style=&quot;color: #222222&quot;&gt;{&lt;/span&gt;&lt;/div&gt;&lt;div&gt;&amp;nbsp;&amp;nbsp;&amp;nbsp;&amp;nbsp;&lt;span style=&quot;color: #cd3131&quot;&gt;id&lt;/span&gt;&amp;nbsp;&lt;span style=&quot;color: #222222&quot;&gt;:&lt;/span&gt;&amp;nbsp;&lt;span style=&quot;color: #cd3131&quot;&gt;&amp;lt;auto&lt;/span&gt;&amp;nbsp;&lt;span style=&quot;color: #cd3131&quot;&gt;generated&amp;gt;&lt;/span&gt;&lt;/div&gt;&lt;div&gt;&amp;nbsp;&amp;nbsp;&amp;nbsp;&amp;nbsp;&lt;span style=&quot;color: #cd3131&quot;&gt;name&lt;/span&gt;&amp;nbsp;&lt;span style=&quot;color: #cd3131&quot;&gt;:&lt;/span&gt;&amp;nbsp;&lt;span style=&quot;color: #cd3131&quot;&gt;&amp;lt;string&amp;gt;&lt;/span&gt;&lt;/div&gt;&lt;div&gt;&amp;nbsp;&amp;nbsp;&amp;nbsp;&amp;nbsp;&lt;span style=&quot;color: #cd3131&quot;&gt;home_address&lt;/span&gt;&amp;nbsp;&lt;span style=&quot;color: #cd3131&quot;&gt;:&lt;/span&gt;&amp;nbsp;&lt;span style=&quot;color: #cd3131&quot;&gt;&amp;lt;string&amp;gt;&lt;/span&gt;&lt;/div&gt;&lt;div&gt;&amp;nbsp;&amp;nbsp;&amp;nbsp;&amp;nbsp;&lt;span style=&quot;color: #cd3131&quot;&gt;phone_number&lt;/span&gt;&amp;nbsp;&lt;span style=&quot;color: #cd3131&quot;&gt;:&lt;/span&gt;&amp;nbsp;&lt;span style=&quot;color: #cd3131&quot;&gt;&amp;lt;string&amp;gt;&lt;/span&gt;&lt;/div&gt;&lt;div&gt;&amp;nbsp;&amp;nbsp;&amp;nbsp;&amp;nbsp;&lt;span style=&quot;color: #cd3131&quot;&gt;email&lt;/span&gt;&amp;nbsp;&lt;span style=&quot;color: #cd3131&quot;&gt;:&lt;/span&gt;&amp;nbsp;&lt;span style=&quot;color: #cd3131&quot;&gt;&amp;lt;string&amp;gt;&lt;/span&gt;&lt;/div&gt;&lt;div&gt;&amp;nbsp;&amp;nbsp;&amp;nbsp;&amp;nbsp;&lt;span style=&quot;color: #cd3131&quot;&gt;subjects&lt;/span&gt;&amp;nbsp;&lt;span style=&quot;color: #cd3131&quot;&gt;:&lt;/span&gt;&amp;nbsp;&lt;span style=&quot;color: #222222&quot;&gt;[&lt;/span&gt;&lt;span style=&quot;color: #cd3131&quot;&gt;&amp;lt;Subjects&amp;gt;&lt;/span&gt;&lt;span style=&quot;color: #222222&quot;&gt;]&lt;/span&gt;&lt;/div&gt;&lt;div&gt;&lt;span style=&quot;color: #222222&quot;&gt;}&lt;/span&gt;&lt;/div&gt;&lt;div&gt;-&amp;nbsp;Subjects&lt;/div&gt;&lt;div&gt;&lt;span style=&quot;color: #222222&quot;&gt;{&lt;/span&gt;&lt;/div&gt;&lt;div&gt;&amp;nbsp;&amp;nbsp;&amp;nbsp;&amp;nbsp;&lt;span style=&quot;color: #cd3131&quot;&gt;id&lt;/span&gt;&amp;nbsp;&lt;span style=&quot;color: #222222&quot;&gt;:&lt;/span&gt;&amp;nbsp;&lt;span style=&quot;color: #cd3131&quot;&gt;&amp;lt;auto&lt;/span&gt;&amp;nbsp;&lt;span style=&quot;color: #cd3131&quot;&gt;generated&amp;gt;&lt;/span&gt;&lt;/div&gt;&lt;div&gt;&amp;nbsp;&amp;nbsp;&amp;nbsp;&amp;nbsp;&lt;span style=&quot;color: #cd3131&quot;&gt;name&lt;/span&gt;&amp;nbsp;&lt;span style=&quot;color: #cd3131&quot;&gt;:&lt;/span&gt;&amp;nbsp;&lt;span style=&quot;color: #cd3131&quot;&gt;&amp;lt;string&amp;gt;&lt;/span&gt;&amp;nbsp;&lt;span style=&quot;color: #008000&quot;&gt;//Matematika&lt;/span&gt;&lt;/div&gt;&lt;div&gt;&amp;nbsp;&amp;nbsp;&amp;nbsp;&amp;nbsp;&lt;span style=&quot;color: #cd3131&quot;&gt;class&lt;/span&gt;&amp;nbsp;&lt;span style=&quot;color: #cd3131&quot;&gt;:&lt;/span&gt;&amp;nbsp;&lt;span style=&quot;color: #cd3131&quot;&gt;&amp;lt;Class&amp;gt;&lt;/span&gt;&lt;/div&gt;&lt;div&gt;&amp;nbsp;&amp;nbsp;&amp;nbsp;&amp;nbsp;&lt;span style=&quot;color: #cd3131&quot;&gt;assignments&lt;/span&gt;&amp;nbsp;&lt;span style=&quot;color: #cd3131&quot;&gt;:&lt;/span&gt;&amp;nbsp;&lt;span style=&quot;color: #222222&quot;&gt;[&lt;/span&gt;&lt;span style=&quot;color: #cd3131&quot;&gt;&amp;lt;Assignment&amp;gt;&lt;/span&gt;&lt;span style=&quot;color: #222222&quot;&gt;]&lt;/span&gt;&lt;/div&gt;&lt;div&gt;&amp;nbsp;&amp;nbsp;&amp;nbsp;&amp;nbsp;&lt;span style=&quot;color: #cd3131&quot;&gt;iconUrl&lt;/span&gt;&amp;nbsp;&lt;span style=&quot;color: #cd3131&quot;&gt;:&lt;/span&gt;&amp;nbsp;&lt;span style=&quot;color: #cd3131&quot;&gt;&amp;lt;string&amp;gt;&lt;/span&gt;&lt;/div&gt;&lt;div&gt;&lt;span style=&quot;color: #222222&quot;&gt;}&lt;/span&gt;&lt;/div&gt;&lt;div&gt;-&amp;nbsp;Assignment&lt;/div&gt;&lt;div&gt;&lt;span style=&quot;color: #222222&quot;&gt;{&lt;/span&gt;&lt;/div&gt;&lt;div&gt;&amp;nbsp;&amp;nbsp;&amp;nbsp;&amp;nbsp;&lt;span style=&quot;color: #cd3131&quot;&gt;id&lt;/span&gt;&amp;nbsp;&lt;span style=&quot;color: #222222&quot;&gt;:&lt;/span&gt;&amp;nbsp;&lt;span style=&quot;color: #cd3131&quot;&gt;&amp;lt;auto&lt;/span&gt;&amp;nbsp;&lt;span style=&quot;color: #cd3131&quot;&gt;generated&amp;gt;&lt;/span&gt;&lt;/div&gt;&lt;div&gt;&amp;nbsp;&amp;nbsp;&amp;nbsp;&amp;nbsp;&lt;span style=&quot;color: #cd3131&quot;&gt;name&lt;/span&gt;&amp;nbsp;&lt;span style=&quot;color: #cd3131&quot;&gt;:&lt;/span&gt;&amp;nbsp;&lt;span style=&quot;color: #cd3131&quot;&gt;&amp;lt;string&amp;gt;&lt;/span&gt;&amp;nbsp;&lt;span style=&quot;color: #008000&quot;&gt;//&amp;nbsp;Perkalian&lt;/span&gt;&lt;/div&gt;&lt;div&gt;&amp;nbsp;&amp;nbsp;&amp;nbsp;&amp;nbsp;&lt;span style=&quot;color: #cd3131&quot;&gt;description&lt;/span&gt;&amp;nbsp;&lt;span style=&quot;color: #cd3131&quot;&gt;:&lt;/span&gt;&amp;nbsp;&lt;span style=&quot;color: #cd3131&quot;&gt;&amp;lt;string&amp;gt;&lt;/span&gt;&lt;/div&gt;&lt;div&gt;&amp;nbsp;&amp;nbsp;&amp;nbsp;&amp;nbsp;&lt;span style=&quot;color: #cd3131&quot;&gt;files&lt;/span&gt;&amp;nbsp;&lt;span style=&quot;color: #cd3131&quot;&gt;:&lt;/span&gt;&amp;nbsp;&lt;span style=&quot;color: #222222&quot;&gt;[&lt;/span&gt;&lt;span style=&quot;color: #cd3131&quot;&gt;&amp;lt;string&amp;gt;&lt;/span&gt;&lt;span style=&quot;color: #222222&quot;&gt;]&lt;/span&gt;&lt;/div&gt;&lt;div&gt;&amp;nbsp;&amp;nbsp;&amp;nbsp;&amp;nbsp;&lt;span style=&quot;color: #cd3131&quot;&gt;start_date&lt;/span&gt;&amp;nbsp;&lt;span style=&quot;color: #cd3131&quot;&gt;:&lt;/span&gt;&amp;nbsp;&lt;span style=&quot;color: #cd3131&quot;&gt;&amp;lt;epoch&lt;/span&gt;&amp;nbsp;&lt;span style=&quot;color: #cd3131&quot;&gt;timestamp&lt;/span&gt;&amp;nbsp;&lt;span style=&quot;color: #cd3131&quot;&gt;in&lt;/span&gt;&amp;nbsp;&lt;span style=&quot;color: #cd3131&quot;&gt;seconds&amp;gt;&lt;/span&gt;&lt;/div&gt;&lt;div&gt;&amp;nbsp;&amp;nbsp;&amp;nbsp;&amp;nbsp;&lt;span style=&quot;color: #cd3131&quot;&gt;due_date&lt;/span&gt;&amp;nbsp;&lt;span style=&quot;color: #cd3131&quot;&gt;:&lt;/span&gt;&amp;nbsp;&lt;span style=&quot;color: #cd3131&quot;&gt;&amp;lt;epoch&lt;/span&gt;&amp;nbsp;&lt;span style=&quot;color: #cd3131&quot;&gt;timestamp&lt;/span&gt;&amp;nbsp;&lt;span style=&quot;color: #cd3131&quot;&gt;in&lt;/span&gt;&amp;nbsp;&lt;span style=&quot;color: #cd3131&quot;&gt;seconds&amp;gt;&lt;/span&gt;&lt;/div&gt;&lt;div&gt;&amp;nbsp;&amp;nbsp;&amp;nbsp;&amp;nbsp;&lt;span style=&quot;color: #cd3131&quot;&gt;report&lt;/span&gt;&amp;nbsp;&lt;span style=&quot;color: #cd3131&quot;&gt;:&lt;/span&gt;&amp;nbsp;&lt;span style=&quot;color: #222222&quot;&gt;[&lt;/span&gt;&lt;span style=&quot;color: #cd3131&quot;&gt;&amp;lt;Report&amp;gt;&lt;/span&gt;&lt;span style=&quot;color: #222222&quot;&gt;]&lt;/span&gt;&lt;/div&gt;&lt;div&gt;&lt;span style=&quot;color: #222222&quot;&gt;}&lt;/span&gt;&lt;/div&gt;&lt;div&gt;-&amp;nbsp;Report&lt;/div&gt;&lt;div&gt;&lt;span style=&quot;color: #222222&quot;&gt;{&lt;/span&gt;&lt;/div&gt;&lt;div&gt;&amp;nbsp;&amp;nbsp;&amp;nbsp;&amp;nbsp;&lt;span style=&quot;color: #cd3131&quot;&gt;id&lt;/span&gt;&amp;nbsp;&lt;span style=&quot;color: #222222&quot;&gt;:&lt;/span&gt;&amp;nbsp;&lt;span style=&quot;color: #cd3131&quot;&gt;&amp;lt;auto&lt;/span&gt;&amp;nbsp;&lt;span style=&quot;color: #cd3131&quot;&gt;generated&amp;gt;&lt;/span&gt;&lt;/div&gt;&lt;div&gt;&amp;nbsp;&amp;nbsp;&amp;nbsp;&amp;nbsp;&lt;span style=&quot;color: #cd3131&quot;&gt;student&lt;/span&gt;&amp;nbsp;&lt;span style=&quot;color: #cd3131&quot;&gt;:&lt;/span&gt;&amp;nbsp;&lt;span style=&quot;color: #cd3131&quot;&gt;&amp;lt;Student&amp;gt;&lt;/span&gt;&lt;/div&gt;&lt;div&gt;&amp;nbsp;&amp;nbsp;&amp;nbsp;&amp;nbsp;&lt;span style=&quot;color: #cd3131&quot;&gt;teacher&lt;/span&gt;&amp;nbsp;&lt;span style=&quot;color: #cd3131&quot;&gt;:&lt;/span&gt;&amp;nbsp;&lt;span style=&quot;color: #cd3131&quot;&gt;&amp;lt;Teacher&amp;gt;&lt;/span&gt;&lt;/div&gt;&lt;div&gt;&amp;nbsp;&amp;nbsp;&amp;nbsp;&amp;nbsp;&lt;span style=&quot;color: #cd3131&quot;&gt;assignment&lt;/span&gt;&amp;nbsp;&amp;nbsp;&lt;span style=&quot;color: #cd3131&quot;&gt;:&lt;/span&gt;&amp;nbsp;&lt;span style=&quot;color: #cd3131&quot;&gt;&amp;lt;Assignment&amp;gt;&lt;/span&gt;&lt;/div&gt;&lt;div&gt;&amp;nbsp;&amp;nbsp;&amp;nbsp;&amp;nbsp;&lt;span style=&quot;color: #cd3131&quot;&gt;value&lt;/span&gt;&amp;nbsp;&lt;span style=&quot;color: #cd3131&quot;&gt;:&lt;/span&gt;&amp;nbsp;&lt;span style=&quot;color: #cd3131&quot;&gt;&amp;lt;string&amp;gt;&lt;/span&gt;&amp;nbsp;&lt;span style=&quot;color: #008000&quot;&gt;//&amp;nbsp;89,&amp;nbsp;A,&amp;nbsp;B,&amp;nbsp;C,&amp;nbsp;D&amp;nbsp;,&amp;nbsp;50&lt;/span&gt;&lt;/div&gt;&lt;div&gt;&lt;span style=&quot;color: #222222&quot;&gt;}&lt;/span&gt;&lt;/div&gt;&lt;div&gt;-&amp;nbsp;Class&lt;/div&gt;&lt;div&gt;&lt;span style=&quot;color: #222222&quot;&gt;{&lt;/span&gt;&lt;/div&gt;&lt;div&gt;&amp;nbsp;&amp;nbsp;&amp;nbsp;&amp;nbsp;&lt;span style=&quot;color: #cd3131&quot;&gt;id&lt;/span&gt;&amp;nbsp;&lt;span style=&quot;color: #222222&quot;&gt;:&lt;/span&gt;&amp;nbsp;&lt;span style=&quot;color: #cd3131&quot;&gt;&amp;lt;auto&lt;/span&gt;&amp;nbsp;&lt;span style=&quot;color: #cd3131&quot;&gt;generated&amp;gt;&lt;/span&gt;&lt;/div&gt;&lt;div&gt;&amp;nbsp;&amp;nbsp;&amp;nbsp;&amp;nbsp;&lt;span style=&quot;color: #cd3131&quot;&gt;name&lt;/span&gt;&amp;nbsp;&lt;span style=&quot;color: #cd3131&quot;&gt;:&lt;/span&gt;&amp;nbsp;&lt;span style=&quot;color: #cd3131&quot;&gt;&amp;lt;string&amp;gt;&lt;/span&gt;&amp;nbsp;&lt;span style=&quot;color: #008000&quot;&gt;//&amp;nbsp;TK-A,&amp;nbsp;TK-B,&amp;nbsp;1,&amp;nbsp;2,&amp;nbsp;3,&amp;nbsp;4,&amp;nbsp;12&lt;/span&gt;&lt;/div&gt;&lt;div&gt;&amp;nbsp;&amp;nbsp;&amp;nbsp;&amp;nbsp;&lt;span style=&quot;color: #cd3131&quot;&gt;grade&lt;/span&gt;&amp;nbsp;&lt;span style=&quot;color: #cd3131&quot;&gt;:&lt;/span&gt;&amp;nbsp;&lt;span style=&quot;color: #222222&quot;&gt;[&lt;/span&gt;&lt;span style=&quot;color: #cd3131&quot;&gt;&amp;lt;Grade&amp;gt;&lt;/span&gt;&lt;span style=&quot;color: #222222&quot;&gt;]&lt;/span&gt;&lt;/div&gt;&lt;div&gt;&amp;nbsp;&amp;nbsp;&amp;nbsp;&amp;nbsp;&lt;span style=&quot;color: #cd3131&quot;&gt;academic_year&lt;/span&gt;&amp;nbsp;&lt;span style=&quot;color: #cd3131&quot;&gt;:&lt;/span&gt;&amp;nbsp;&lt;span style=&quot;color: #cd3131&quot;&gt;&amp;lt;string&amp;gt;&lt;/span&gt;&lt;/div&gt;&lt;div&gt;&amp;nbsp;&amp;nbsp;&amp;nbsp;&amp;nbsp;&lt;span style=&quot;color: #cd3131&quot;&gt;school&lt;/span&gt;&amp;nbsp;&lt;span style=&quot;color: #cd3131&quot;&gt;:&lt;/span&gt;&amp;nbsp;&lt;span style=&quot;color: #cd3131&quot;&gt;&amp;lt;School&amp;gt;&lt;/span&gt;&lt;/div&gt;&lt;div&gt;&amp;nbsp;&amp;nbsp;&amp;nbsp;&amp;nbsp;&lt;span style=&quot;color: #cd3131&quot;&gt;subject&lt;/span&gt;&amp;nbsp;&lt;span style=&quot;color: #cd3131&quot;&gt;:&lt;/span&gt;&amp;nbsp;&lt;span style=&quot;color: #222222&quot;&gt;[&lt;/span&gt;&lt;span style=&quot;color: #cd3131&quot;&gt;&amp;lt;Subjects&amp;gt;&lt;/span&gt;&lt;span style=&quot;color: #222222&quot;&gt;]&lt;/span&gt;&lt;/div&gt;&lt;div&gt;&amp;nbsp;&amp;nbsp;&amp;nbsp;&amp;nbsp;&lt;span style=&quot;color: #cd3131&quot;&gt;schedule&lt;/span&gt;&amp;nbsp;&lt;span style=&quot;color: #cd3131&quot;&gt;:&lt;/span&gt;&amp;nbsp;&lt;span style=&quot;color: #cd3131&quot;&gt;&amp;lt;Schedule&amp;gt;&lt;/span&gt;&lt;/div&gt;&lt;div&gt;&amp;nbsp;&amp;nbsp;&amp;nbsp;&amp;nbsp;&lt;span style=&quot;color: #cd3131&quot;&gt;students&lt;/span&gt;&amp;nbsp;&lt;span style=&quot;color: #cd3131&quot;&gt;:&lt;/span&gt;&amp;nbsp;&lt;span style=&quot;color: #222222&quot;&gt;[&lt;/span&gt;&lt;span style=&quot;color: #cd3131&quot;&gt;&amp;lt;Students&amp;gt;&lt;/span&gt;&lt;span style=&quot;color: #222222&quot;&gt;]&lt;/span&gt;&lt;/div&gt;&lt;div&gt;&lt;span style=&quot;color: #222222&quot;&gt;}&lt;/span&gt;&lt;/div&gt;&lt;div&gt;-&amp;nbsp;Schedule&lt;/div&gt;&lt;div&gt;&lt;span style=&quot;color: #222222&quot;&gt;{&lt;/span&gt;&lt;/div&gt;&lt;div&gt;&amp;nbsp;&amp;nbsp;&amp;nbsp;&amp;nbsp;&lt;span style=&quot;color: #cd3131&quot;&gt;id&lt;/span&gt;&amp;nbsp;&lt;span style=&quot;color: #222222&quot;&gt;:&lt;/span&gt;&amp;nbsp;&lt;span style=&quot;color: #cd3131&quot;&gt;&amp;lt;auto&lt;/span&gt;&amp;nbsp;&lt;span style=&quot;color: #cd3131&quot;&gt;generated&amp;gt;&lt;/span&gt;&lt;/div&gt;&lt;div&gt;&amp;nbsp;&amp;nbsp;&amp;nbsp;&amp;nbsp;&lt;span style=&quot;color: #cd3131&quot;&gt;class&lt;/span&gt;&amp;nbsp;&lt;span style=&quot;color: #cd3131&quot;&gt;:&lt;/span&gt;&amp;nbsp;&lt;span style=&quot;color: #cd3131&quot;&gt;&amp;lt;Class&amp;gt;&lt;/span&gt;&lt;/div&gt;&lt;div&gt;&amp;nbsp;&amp;nbsp;&amp;nbsp;&amp;nbsp;&lt;span style=&quot;color: #cd3131&quot;&gt;schedule&lt;/span&gt;&amp;nbsp;&lt;span style=&quot;color: #cd3131&quot;&gt;:&lt;/span&gt;&amp;nbsp;&lt;span style=&quot;color: #cd3131&quot;&gt;&amp;lt;JSON&lt;/span&gt;&amp;nbsp;&lt;span style=&quot;color: #cd3131&quot;&gt;string&amp;gt;&lt;/span&gt;&lt;/div&gt;&lt;div&gt;&lt;span style=&quot;color: #222222&quot;&gt;}&lt;/span&gt;&lt;/div&gt;&lt;div&gt;-&amp;nbsp;Grade&amp;nbsp;&lt;/div&gt;&lt;div&gt;&lt;span style=&quot;color: #222222&quot;&gt;{&lt;/span&gt;&lt;/div&gt;&lt;div&gt;&amp;nbsp;&amp;nbsp;&amp;nbsp;&amp;nbsp;&lt;span style=&quot;color: #cd3131&quot;&gt;id&lt;/span&gt;&amp;nbsp;&lt;span style=&quot;color: #222222&quot;&gt;:&lt;/span&gt;&amp;nbsp;&lt;span style=&quot;color: #cd3131&quot;&gt;&amp;lt;auto&lt;/span&gt;&amp;nbsp;&lt;span style=&quot;color: #cd3131&quot;&gt;generated&amp;gt;&lt;/span&gt;&lt;/div&gt;&lt;div&gt;&amp;nbsp;&amp;nbsp;&amp;nbsp;&amp;nbsp;&lt;span style=&quot;color: #cd3131&quot;&gt;student&lt;/span&gt;&amp;nbsp;&lt;span style=&quot;color: #cd3131&quot;&gt;:&lt;/span&gt;&amp;nbsp;&lt;span style=&quot;color: #cd3131&quot;&gt;&amp;lt;Student&amp;gt;&lt;/span&gt;&lt;/div&gt;&lt;div&gt;&amp;nbsp;&amp;nbsp;&amp;nbsp;&amp;nbsp;&lt;span style=&quot;color: #cd3131&quot;&gt;value&lt;/span&gt;&amp;nbsp;&lt;span style=&quot;color: #cd3131&quot;&gt;:&lt;/span&gt;&amp;nbsp;&lt;span style=&quot;color: #cd3131&quot;&gt;&amp;lt;string&amp;gt;&lt;/span&gt;&lt;/div&gt;&lt;div&gt;&lt;span style=&quot;color: #222222&quot;&gt;}&lt;/span&gt;&lt;/div&gt;&lt;/div&gt;" style="text;html=1;align=left;verticalAlign=middle;resizable=0;points=[];autosize=1;strokeColor=none;fillColor=none;snapToPoint=0;" vertex="1" parent="1">
          <mxGeometry x="3190" y="240" width="390" height="1640" as="geometry" />
        </mxCell>
        <mxCell id="IadoKZSt1bUUKNwr9SB5-210" value="" style="edgeStyle=elbowEdgeStyle;elbow=horizontal;endArrow=classic;html=1;" edge="1" parent="1" source="IadoKZSt1bUUKNwr9SB5-96" target="IadoKZSt1bUUKNwr9SB5-187">
          <mxGeometry width="50" height="50" relative="1" as="geometry">
            <mxPoint x="1060" y="1250" as="sourcePoint" />
            <mxPoint x="1120" y="1300" as="targetPoint" />
          </mxGeometry>
        </mxCell>
        <mxCell id="IadoKZSt1bUUKNwr9SB5-232" value="Report" style="swimlane;html=1;fontStyle=0;childLayout=stackLayout;horizontal=1;startSize=26;fillColor=#e0e0e0;horizontalStack=0;resizeParent=1;resizeLast=0;collapsible=1;marginBottom=0;swimlaneFillColor=#ffffff;align=center;rounded=0;shadow=0;comic=0;labelBackgroundColor=none;strokeWidth=1;fontFamily=Verdana;fontSize=14" vertex="1" parent="1">
          <mxGeometry x="2000" y="778" width="230" height="300" as="geometry">
            <mxRectangle x="1010" y="1060" width="70" height="26" as="alternateBounds" />
          </mxGeometry>
        </mxCell>
        <mxCell id="IadoKZSt1bUUKNwr9SB5-233" value="uniqueId Generated" style="shape=partialRectangle;top=0;left=0;right=0;bottom=1;html=1;align=left;verticalAlign=middle;fillColor=none;spacingLeft=34;spacingRight=4;whiteSpace=wrap;overflow=hidden;rotatable=0;points=[[0,0.5],[1,0.5]];portConstraint=eastwest;dropTarget=0;fontStyle=5;" vertex="1" parent="IadoKZSt1bUUKNwr9SB5-232">
          <mxGeometry y="26" width="230" height="30" as="geometry" />
        </mxCell>
        <mxCell id="IadoKZSt1bUUKNwr9SB5-234" value="PK" style="shape=partialRectangle;top=0;left=0;bottom=0;html=1;fillColor=none;align=left;verticalAlign=middle;spacingLeft=4;spacingRight=4;whiteSpace=wrap;overflow=hidden;rotatable=0;points=[];portConstraint=eastwest;part=1;" vertex="1" connectable="0" parent="IadoKZSt1bUUKNwr9SB5-233">
          <mxGeometry width="30" height="30" as="geometry" />
        </mxCell>
        <mxCell id="IadoKZSt1bUUKNwr9SB5-235" value="name : &amp;lt;string&amp;gt;&amp;nbsp;&lt;br&gt;&lt;br&gt;assignment_id :&lt;br&gt;&lt;br&gt;class_student_id&lt;br&gt;&lt;br&gt;value:&lt;br&gt;&lt;br&gt;" style="shape=partialRectangle;top=0;left=0;right=0;bottom=0;html=1;align=left;verticalAlign=top;fillColor=none;spacingLeft=34;spacingRight=4;whiteSpace=wrap;overflow=hidden;rotatable=0;points=[[0,0.5],[1,0.5]];portConstraint=eastwest;dropTarget=0;" vertex="1" parent="IadoKZSt1bUUKNwr9SB5-232">
          <mxGeometry y="56" width="230" height="244" as="geometry" />
        </mxCell>
        <mxCell id="IadoKZSt1bUUKNwr9SB5-236" value="" style="shape=partialRectangle;top=0;left=0;bottom=0;html=1;fillColor=none;align=left;verticalAlign=top;spacingLeft=4;spacingRight=4;whiteSpace=wrap;overflow=hidden;rotatable=0;points=[];portConstraint=eastwest;part=1;" vertex="1" connectable="0" parent="IadoKZSt1bUUKNwr9SB5-235">
          <mxGeometry width="30" height="244" as="geometry" />
        </mxCell>
        <mxCell id="IadoKZSt1bUUKNwr9SB5-237" value="" style="edgeStyle=entityRelationEdgeStyle;fontSize=12;html=1;endArrow=ERoneToMany;exitX=1;exitY=0.5;exitDx=0;exitDy=0;entryX=-0.007;entryY=0.104;entryDx=0;entryDy=0;entryPerimeter=0;" edge="1" parent="1" source="IadoKZSt1bUUKNwr9SB5-199" target="IadoKZSt1bUUKNwr9SB5-3">
          <mxGeometry x="450" y="289" width="100" height="100" as="geometry">
            <mxPoint x="790" y="330" as="sourcePoint" />
            <mxPoint x="850" y="419" as="targetPoint" />
          </mxGeometry>
        </mxCell>
        <mxCell id="IadoKZSt1bUUKNwr9SB5-238" value="School Teacher" style="swimlane;html=1;fontStyle=0;childLayout=stackLayout;horizontal=1;startSize=26;fillColor=#e0e0e0;horizontalStack=0;resizeParent=1;resizeLast=0;collapsible=1;marginBottom=0;swimlaneFillColor=#ffffff;align=center;rounded=0;shadow=0;comic=0;labelBackgroundColor=none;strokeWidth=1;fontFamily=Verdana;fontSize=14" vertex="1" parent="1">
          <mxGeometry x="830" y="230" width="230" height="160" as="geometry" />
        </mxCell>
        <mxCell id="IadoKZSt1bUUKNwr9SB5-239" value="uniqueId Generated" style="shape=partialRectangle;top=0;left=0;right=0;bottom=1;html=1;align=left;verticalAlign=middle;fillColor=none;spacingLeft=34;spacingRight=4;whiteSpace=wrap;overflow=hidden;rotatable=0;points=[[0,0.5],[1,0.5]];portConstraint=eastwest;dropTarget=0;fontStyle=5;" vertex="1" parent="IadoKZSt1bUUKNwr9SB5-238">
          <mxGeometry y="26" width="230" height="30" as="geometry" />
        </mxCell>
        <mxCell id="IadoKZSt1bUUKNwr9SB5-240" value="PK" style="shape=partialRectangle;top=0;left=0;bottom=0;html=1;fillColor=none;align=left;verticalAlign=middle;spacingLeft=4;spacingRight=4;whiteSpace=wrap;overflow=hidden;rotatable=0;points=[];portConstraint=eastwest;part=1;" vertex="1" connectable="0" parent="IadoKZSt1bUUKNwr9SB5-239">
          <mxGeometry width="30" height="30" as="geometry" />
        </mxCell>
        <mxCell id="IadoKZSt1bUUKNwr9SB5-241" value="name : &amp;lt;string&amp;gt;&amp;nbsp;" style="shape=partialRectangle;top=0;left=0;right=0;bottom=0;html=1;align=left;verticalAlign=top;fillColor=none;spacingLeft=34;spacingRight=4;whiteSpace=wrap;overflow=hidden;rotatable=0;points=[[0,0.5],[1,0.5]];portConstraint=eastwest;dropTarget=0;" vertex="1" parent="IadoKZSt1bUUKNwr9SB5-238">
          <mxGeometry y="56" width="230" height="26" as="geometry" />
        </mxCell>
        <mxCell id="IadoKZSt1bUUKNwr9SB5-242" value="" style="shape=partialRectangle;top=0;left=0;bottom=0;html=1;fillColor=none;align=left;verticalAlign=top;spacingLeft=4;spacingRight=4;whiteSpace=wrap;overflow=hidden;rotatable=0;points=[];portConstraint=eastwest;part=1;" vertex="1" connectable="0" parent="IadoKZSt1bUUKNwr9SB5-241">
          <mxGeometry width="30" height="26" as="geometry" />
        </mxCell>
        <mxCell id="IadoKZSt1bUUKNwr9SB5-243" value="teacher_id&lt;br&gt;&lt;br&gt;school_id" style="shape=partialRectangle;top=0;left=0;right=0;bottom=0;html=1;align=left;verticalAlign=top;fillColor=none;spacingLeft=34;spacingRight=4;whiteSpace=wrap;overflow=hidden;rotatable=0;points=[[0,0.5],[1,0.5]];portConstraint=eastwest;dropTarget=0;" vertex="1" parent="IadoKZSt1bUUKNwr9SB5-238">
          <mxGeometry y="82" width="230" height="78" as="geometry" />
        </mxCell>
        <mxCell id="IadoKZSt1bUUKNwr9SB5-244" value="" style="shape=partialRectangle;top=0;left=0;bottom=0;html=1;fillColor=none;align=left;verticalAlign=top;spacingLeft=4;spacingRight=4;whiteSpace=wrap;overflow=hidden;rotatable=0;points=[];portConstraint=eastwest;part=1;" vertex="1" connectable="0" parent="IadoKZSt1bUUKNwr9SB5-243">
          <mxGeometry width="30" height="78" as="geometry" />
        </mxCell>
        <mxCell id="IadoKZSt1bUUKNwr9SB5-245" value="" style="endArrow=classic;html=1;entryX=0;entryY=0.5;entryDx=0;entryDy=0;exitX=1.005;exitY=-0.031;exitDx=0;exitDy=0;exitPerimeter=0;" edge="1" parent="1" source="IadoKZSt1bUUKNwr9SB5-243" target="IadoKZSt1bUUKNwr9SB5-183">
          <mxGeometry width="50" height="50" relative="1" as="geometry">
            <mxPoint x="1110" y="320" as="sourcePoint" />
            <mxPoint x="1160" y="270" as="targetPoint" />
          </mxGeometry>
        </mxCell>
        <mxCell id="IadoKZSt1bUUKNwr9SB5-247" value="" style="endArrow=classic;html=1;entryX=1;entryY=0.25;entryDx=0;entryDy=0;exitX=0.011;exitY=-0.049;exitDx=0;exitDy=0;exitPerimeter=0;" edge="1" parent="1" source="IadoKZSt1bUUKNwr9SB5-243" target="IadoKZSt1bUUKNwr9SB5-198">
          <mxGeometry width="50" height="50" relative="1" as="geometry">
            <mxPoint x="1081.1499999999996" y="262.4359999999999" as="sourcePoint" />
            <mxPoint x="1212.4699999999998" y="295.28999999999996" as="targetPoint" />
          </mxGeometry>
        </mxCell>
      </root>
    </mxGraphModel>
  </diagram>
</mxfile>
